<?xml version="1.0" encoding="iso-8859-1"?>
<!-- Uploaded to: SVG Repo, www.svgrepo.com, Generator: SVG Repo Mixer Tools -->
<svg height="800px" width="800px" version="1.1" id="Layer_1" xmlns="http://www.w3.org/2000/svg" xmlns:xlink="http://www.w3.org/1999/xlink" 
	 viewBox="0 0 512 512" xml:space="preserve">
<path style="fill:#84BD5A;" d="M480,224c0,141.392-160,288-224,288S32,365.392,32,224C31.984,82.624,114.608,0,255.984,0
	S480,82.624,480,224z"/>
<path style="fill:#6FA14E;" d="M412.544,51.44C445.904,89.376,464,142.224,464,208c0,141.392-160,288-224,288
	c-26.128,0-68.256-24.432-108.96-62.992C176.352,480.656,226.416,512,255.984,512c64,0,224-146.608,224-288
	C480,148.384,456.176,89.792,412.544,51.44z"/>
<g>
	
		<ellipse transform="matrix(0.7071 -0.7071 0.7071 0.7071 -100.7729 187.5381)" style="fill:#35495C;" cx="175.992" cy="215.413" rx="54.303" ry="72.415"/>
	
		<ellipse transform="matrix(0.7071 0.7071 -0.7071 0.7071 250.7376 -174.502)" style="fill:#35495C;" cx="336.011" cy="215.416" rx="54.303" ry="72.415"/>
</g>
<g>
	<path style="fill:#123247;" d="M297.6,201.6c28.272-28.272,68.384-34,89.616-12.8c5.84,5.84,9.44,13.184,11.28,21.264
		c3.488-17.552,0.112-34.432-11.28-45.824c-21.216-21.2-61.344-15.472-89.616,12.8c-20.48,20.48-28.944,47.12-24.096,68.336
		C276.496,230.272,284.512,214.672,297.6,201.6z"/>
	<path style="fill:#123247;" d="M214.192,201.6c-28.272-28.272-68.384-34-89.6-12.8c-5.84,5.84-9.44,13.184-11.296,21.264
		c-3.472-17.552-0.112-34.432,11.296-45.824c21.216-21.2,61.328-15.472,89.6,12.8c20.48,20.48,28.944,47.12,24.096,68.336
		C235.28,230.272,227.264,214.672,214.192,201.6z"/>
</g>
<circle style="fill:#668E46;" cx="255.984" cy="384" r="32"/>
<path style="fill:#537038;" d="M255.984,368c14.896,0,27.312,10.224,30.88,24c0.656-2.56,1.12-5.216,1.12-8
	c0-17.664-14.336-32-32-32s-32,14.336-32,32c0,2.784,0.464,5.44,1.12,8C228.688,378.224,241.104,368,255.984,368z"/>
</svg>