<?xml version="1.0" encoding="iso-8859-1"?>
<!-- Uploaded to: SVG Repo, www.svgrepo.com, Generator: SVG Repo Mixer Tools -->
<svg height="800px" width="800px" version="1.1" id="Layer_1" xmlns="http://www.w3.org/2000/svg" xmlns:xlink="http://www.w3.org/1999/xlink" 
	 viewBox="0 0 512 512" xml:space="preserve">
<circle style="fill:#FCD063;" cx="256" cy="256" r="256"/>
<g>
	<circle style="fill:#F7B84E;" cx="408" cy="248" r="24"/>
	<circle style="fill:#F7B84E;" cx="104" cy="248" r="24"/>
	<path style="fill:#F7B84E;" d="M420.256,59.744C457.504,104.208,480,161.456,480,224c0,141.376-114.624,256-256,256
		c-62.544,0-119.792-22.496-164.256-59.744C106.704,476.32,177.152,512,256,512c141.376,0,256-114.624,256-256
		C512,177.152,476.32,106.704,420.256,59.744z"/>
</g>
<circle style="fill:#C98E3F;" cx="160" cy="176" r="32"/>
<path style="fill:#AB7934;" d="M160,160c14.896,0,27.296,10.224,30.864,24c0.672-2.576,1.136-5.216,1.136-8
	c0-17.664-14.336-32-32-32s-32,14.336-32,32c0,2.784,0.464,5.424,1.136,8C132.704,170.224,145.104,160,160,160z"/>
<circle style="fill:#C98E3F;" cx="352" cy="176" r="32"/>
<path style="fill:#AB7934;" d="M352,160c14.896,0,27.296,10.224,30.88,24c0.656-2.576,1.12-5.216,1.12-8c0-17.664-14.336-32-32-32
	s-32,14.336-32,32c0,2.784,0.464,5.424,1.12,8C324.704,170.224,337.104,160,352,160z"/>
<path style="fill:#C98E3F;" d="M352,320c0,65.456-42.992,80-96,80s-96-14.544-96-80s42.992-80,96-80S352,254.544,352,320z"/>
<path style="fill:#AB7934;" d="M256,256c50.752,0,92.192,13.456,95.664,72c0.144-2.624,0.336-5.2,0.336-8c0-65.456-42.992-80-96-80
	s-96,14.544-96,80c0,2.8,0.192,5.376,0.336,8C163.808,269.456,205.248,256,256,256z"/>
</svg>