<?xml version="1.0" encoding="iso-8859-1"?>
<!-- Uploaded to: SVG Repo, www.svgrepo.com, Generator: SVG Repo Mixer Tools -->
<svg height="800px" width="800px" version="1.1" id="Layer_1" xmlns="http://www.w3.org/2000/svg" xmlns:xlink="http://www.w3.org/1999/xlink" 
	 viewBox="0 0 512 512" xml:space="preserve">
<circle style="fill:#FCD063;" cx="256" cy="256" r="256"/>
<path style="fill:#F7B84E;" d="M420.256,59.744C457.504,104.208,480,161.456,480,224c0,141.376-114.624,256-256,256
	c-62.544,0-119.792-22.496-164.256-59.744C106.704,476.32,177.152,512,256,512c141.376,0,256-114.624,256-256
	C512,177.152,476.32,106.704,420.256,59.744z"/>
<circle style="fill:#C98E3F;" cx="160" cy="224" r="32"/>
<path style="fill:#AB7934;" d="M160,208c14.896,0,27.296,10.224,30.864,24c0.672-2.576,1.136-5.216,1.136-8
	c0-17.664-14.336-32-32-32s-32,14.336-32,32c0,2.784,0.464,5.424,1.136,8C132.704,218.224,145.104,208,160,208z"/>
<circle style="fill:#C98E3F;" cx="352" cy="224" r="32"/>
<g>
	<circle style="fill:#F7B84E;" cx="408" cy="280" r="24"/>
	<circle style="fill:#F7B84E;" cx="104" cy="280" r="24"/>
</g>
<path style="fill:#AB7934;" d="M352,208c14.896,0,27.296,10.224,30.88,24c0.656-2.576,1.12-5.216,1.12-8c0-17.664-14.336-32-32-32
	s-32,14.336-32,32c0,2.784,0.464,5.424,1.12,8C324.704,218.224,337.104,208,352,208z"/>
<path style="fill:#E2E5E7;" d="M356.512,20.544c24.112,10.304,46.24,24.32,65.856,41.136c30.112,6.016,48.816,12.928,55.76,18.32
	c0,0,0,0-0.016,0c0.016,0,0.016,0,0.016,0c-15.632,12.128-90.56,32-222.128,32S49.504,92.128,33.872,80c0,0,0,0,0.016,0h-0.016
	c6.944-5.392,25.648-12.304,55.744-18.32c19.632-16.832,41.744-30.832,65.872-41.136C83.424,26.976,0,42.512,0,80l0,0l0,0
	c0,62.208,229.792,64,256,64s256-1.792,256-64l0,0l0,0C512,42.512,428.56,26.976,356.512,20.544z"/>
<path style="fill:#C98E3F;" d="M343.28,304H168.72c-4.816,0-8.72,3.584-8.72,8c0,48.528,43.056,88,96,88s96-39.472,96-88
	C352,307.584,348.096,304,343.28,304z"/>
<path style="fill:#AB7934;" d="M351.36,320c0.288-2.656,0.64-5.28,0.64-8c0-4.416-3.904-8-8.72-8H168.72c-4.816,0-8.72,3.584-8.72,8
	c0,2.72,0.352,5.344,0.64,8H351.36z"/>
</svg>