<?xml version="1.0" encoding="iso-8859-1"?>
<!-- Uploaded to: SVG Repo, www.svgrepo.com, Generator: SVG Repo Mixer Tools -->
<svg height="800px" width="800px" version="1.1" id="Layer_1" xmlns="http://www.w3.org/2000/svg" xmlns:xlink="http://www.w3.org/1999/xlink" 
	 viewBox="0 0 512 512" xml:space="preserve">
<circle style="fill:#F15642;" cx="256" cy="256" r="256"/>
<path style="fill:#DA4E3C;" d="M420.256,59.744C457.504,104.208,480,161.456,480,224c0,141.376-114.624,256-256,256
	c-62.544,0-119.792-22.496-164.256-59.744C106.704,476.32,177.152,512,256,512c141.376,0,256-114.624,256-256
	C512,177.152,476.32,106.704,420.256,59.744z"/>
<path style="fill:#B33B32;" d="M325.792,352c-4.608,0-9.264-1.12-13.52-3.472c-29.968-16.592-82.576-16.592-112.56,0
	c-12.368,6.864-28.48,3.216-35.952-8.144s-3.488-26.128,8.88-32.992c46.736-25.872,119.968-25.872,166.704,0
	c12.368,6.864,16.352,21.632,8.896,32.992C343.312,347.856,334.672,352,325.792,352z"/>
<path style="fill:#8F3028;" d="M172.656,323.408c46.736-25.872,119.968-25.872,166.704,0c5.456,3.024,9.152,7.6,11.072,12.72
	c4.176-10.56-0.208-22.688-11.072-28.72c-46.736-25.872-119.968-25.872-166.704,0c-10.88,6.032-15.248,18.16-11.088,28.72
	C163.504,331.008,167.216,326.432,172.656,323.408z"/>
<path style="fill:#B33B32;" d="M199.984,248c-4.576,0-9.2-1.312-13.296-4.032l-48-32c-11.024-7.344-14-22.256-6.656-33.28
	s22.24-14.016,33.28-6.656l48,32c11.024,7.344,14,22.256,6.656,33.28C215.344,244.256,207.728,248,199.984,248z"/>
<path style="fill:#8F3028;" d="M132.032,202.688c7.344-11.024,22.24-14.016,33.28-6.656l48,32c3.168,2.112,5.584,4.88,7.36,7.952
	c6.304-10.88,3.248-24.88-7.36-31.952l-48-32c-11.04-7.36-25.936-4.368-33.28,6.656c-5.248,7.872-5.152,17.664-0.704,25.328
	C131.584,203.584,131.744,203.12,132.032,202.688z"/>
<path style="fill:#B33B32;" d="M312.032,248c-7.76,0-15.376-3.744-20-10.688c-7.344-11.024-4.368-25.936,6.656-33.28l48-32
	c11.024-7.36,25.936-4.368,33.28,6.656s4.368,25.936-6.656,33.28l-48,32C321.216,246.688,316.592,248,312.032,248z"/>
<path style="fill:#8F3028;" d="M379.968,202.688c-7.344-11.024-22.24-14.016-33.28-6.656l-48,32c-3.152,2.112-5.584,4.88-7.36,7.952
	c-6.304-10.88-3.232-24.88,7.36-31.952l48-32c11.04-7.36,25.936-4.368,33.28,6.656c5.248,7.872,5.152,17.664,0.704,25.328
	C380.416,203.584,380.256,203.12,379.968,202.688z"/>
<g>
	<circle style="fill:#DA4E3C;" cx="408" cy="264" r="24"/>
	<circle style="fill:#DA4E3C;" cx="104" cy="264" r="24"/>
</g>
</svg>