<?xml version="1.0" encoding="iso-8859-1"?>
<!-- Uploaded to: SVG Repo, www.svgrepo.com, Generator: SVG Repo Mixer Tools -->
<svg height="800px" width="800px" version="1.1" id="Layer_1" xmlns="http://www.w3.org/2000/svg" xmlns:xlink="http://www.w3.org/1999/xlink" 
	 viewBox="0 0 512 512" xml:space="preserve">
<circle style="fill:#FCD063;" cx="256" cy="256" r="256"/>
<path style="fill:#F7B84E;" d="M420.256,59.744C457.504,104.208,480,161.456,480,224c0,141.376-114.624,256-256,256
	c-62.544,0-119.792-22.496-164.256-59.744C106.704,476.32,177.152,512,256,512c141.376,0,256-114.624,256-256
	C512,177.152,476.32,106.704,420.256,59.744z"/>
<circle style="fill:#C98E3F;" cx="160" cy="224" r="32"/>
<path style="fill:#AB7934;" d="M160,208c14.896,0,27.296,10.224,30.864,24c0.672-2.576,1.136-5.216,1.136-8
	c0-17.664-14.336-32-32-32s-32,14.336-32,32c0,2.784,0.464,5.424,1.136,8C132.704,218.224,145.104,208,160,208z"/>
<circle style="fill:#C98E3F;" cx="352" cy="224" r="32"/>
<g>
	<circle style="fill:#F7B84E;" cx="408" cy="280" r="24"/>
	<circle style="fill:#F7B84E;" cx="104" cy="280" r="24"/>
</g>
<path style="fill:#AB7934;" d="M352,208c14.896,0,27.296,10.224,30.88,24c0.656-2.576,1.12-5.216,1.12-8c0-17.664-14.336-32-32-32
	s-32,14.336-32,32c0,2.784,0.464,5.424,1.12,8C324.704,218.224,337.104,208,352,208z"/>
<path style="fill:#C98E3F;" d="M186.208,304c4.608,0,9.264,1.12,13.504,3.472c29.984,16.592,82.592,16.592,112.576,0
	c12.368-6.864,28.464-3.216,35.936,8.144c7.488,11.36,3.504,26.128-8.88,32.992c-46.736,25.872-119.968,25.872-166.704,0
	c-12.368-6.864-16.352-21.632-8.88-32.992C168.672,308.144,177.328,304,186.208,304z"/>
<path style="fill:#AB7934;" d="M163.76,331.6c4.912-7.472,13.568-11.6,22.448-11.6c4.608,0,9.264,1.104,13.504,3.456
	c29.984,16.608,82.592,16.608,112.576,0c12.368-6.864,28.464-3.2,35.936,8.144c0.912,1.376,1.648,2.816,2.224,4.288
	c2.448-6.512,1.968-13.904-2.224-20.272c-7.472-11.36-23.568-15.008-35.936-8.144c-29.984,16.592-82.592,16.592-112.576,0
	c-4.24-2.352-8.896-3.472-13.504-3.472c-8.88,0-17.52,4.144-22.448,11.616c-4.192,6.352-4.672,13.744-2.208,20.272
	C162.128,334.4,162.848,332.976,163.76,331.6z"/>
<path style="fill:#F15642;" d="M288,352h-64c-8.8,0-16,7.2-16,16v48c0,26.496,21.488,48,48,48c26.496,0,48-21.504,48-48v-48
	C304,359.2,296.8,352,288,352z"/>
<path style="fill:#DA4E3C;" d="M302.848,362.336C300.544,356.336,294.8,352,288,352h-64c-6.8,0-12.544,4.336-14.848,10.336
	C239.104,369.68,272.912,369.68,302.848,362.336z"/>
<path style="fill:#F7B84E;" d="M302.848,362.336C303.536,364.128,304,366,304,368v48c0,26.496-21.504,48-48,48
	c-2.848,0-5.6-0.336-8.288-0.848c-1.088-0.192-2.144-0.432-3.216-0.704c-1.392-0.352-2.752-0.8-4.112-1.264
	c-3.264-1.12-6.352-2.544-9.248-4.32C239.568,470.688,254.64,480,272,480c26.496,0,48-21.504,48-48v-74.72
	C314.496,359.28,308.72,360.912,302.848,362.336z"/>
</svg>