<?xml version="1.0" encoding="iso-8859-1"?>
<!-- Uploaded to: SVG Repo, www.svgrepo.com, Generator: SVG Repo Mixer Tools -->
<svg height="800px" width="800px" version="1.1" id="Layer_1" xmlns="http://www.w3.org/2000/svg" xmlns:xlink="http://www.w3.org/1999/xlink" 
	 viewBox="0 0 512 512" xml:space="preserve">
<circle style="fill:#E2E5E7;" cx="256" cy="256" r="256"/>
<circle style="fill:#F15642;" cx="256" cy="272" r="48"/>
<path style="fill:#576D7E;" d="M192,208c-8.848,0-16-7.168-16-16c0-8.816-7.168-16-16-16s-16,7.184-16,16c0,8.832-7.152,16-16,16
	s-16-7.168-16-16c0-26.464,21.536-48,48-48s48,21.536,48,48C208,200.832,200.848,208,192,208z"/>
<path style="fill:#35495C;" d="M160,160c22.944,0,42.128,16.208,46.848,37.744c0.688-1.792,1.152-3.712,1.152-5.744
	c0-26.464-21.536-48-48-48s-48,21.536-48,48c0,2.032,0.464,3.952,1.152,5.744C117.872,176.208,137.056,160,160,160z"/>
<path style="fill:#576D7E;" d="M384,208c-8.848,0-16-7.168-16-16c0-8.816-7.168-16-16-16s-16,7.184-16,16c0,8.832-7.152,16-16,16
	s-16-7.168-16-16c0-26.464,21.536-48,48-48s48,21.536,48,48C400,200.832,392.848,208,384,208z"/>
<path style="fill:#35495C;" d="M352,160c22.944,0,42.128,16.208,46.848,37.744c0.688-1.792,1.152-3.712,1.152-5.744
	c0-26.464-21.536-48-48-48s-48,21.536-48,48c0,2.032,0.464,3.952,1.152,5.744C309.872,176.208,329.056,160,352,160z"/>
<path style="fill:#F15642;" d="M341.328,304L341.328,304c-47.136,42.688-123.552,42.672-170.672,0h0.016
	c-45.808-41.456-119.168-42.512-166.528-3.376C25.28,420.688,129.872,512,256,512s230.72-91.312,251.856-211.376
	C460.496,261.488,387.136,262.528,341.328,304z"/>
<path style="fill:#CAD1D8;" d="M420.256,59.744C457.504,104.208,480,161.456,480,224c0,141.376-114.624,256-256,256
	c-62.544,0-119.776-22.496-164.256-59.744C106.704,476.32,177.152,512,256,512c141.376,0,256-114.624,256-256
	C512,177.152,476.32,106.704,420.256,59.744z"/>
<path style="fill:#DA4E3C;" d="M507.856,300.624L507.856,300.624c-10.384-8.592-22.08-15.12-34.384-19.84
	C447.6,394.816,345.84,480,224,480c-62.544,0-119.776-22.496-164.256-59.744C106.704,476.32,177.152,512,256,512
	C382.128,512,486.72,420.688,507.856,300.624z"/>
<path style="fill:#576D7E;" d="M186.224,352c4.608,0,9.264,1.12,13.504,3.472c29.984,16.592,82.592,16.592,112.56,0
	c12.368-6.864,28.48-3.216,35.968,8.144c7.472,11.36,3.488,26.128-8.896,32.992c-46.736,25.872-119.968,25.872-166.704,0
	c-12.368-6.864-16.352-21.632-8.88-32.992C168.688,356.144,177.344,352,186.224,352z"/>
<path style="fill:#35495C;" d="M163.776,379.6c4.912-7.472,13.568-11.6,22.448-11.6c4.608,0,9.264,1.104,13.504,3.456
	c29.984,16.608,82.592,16.608,112.56,0c12.368-6.864,28.48-3.2,35.968,8.144c0.912,1.376,1.632,2.816,2.192,4.288
	c2.464-6.512,2-13.904-2.192-20.272c-7.488-11.36-23.6-15.008-35.968-8.144c-29.968,16.592-82.576,16.592-112.56,0
	c-4.24-2.352-8.896-3.472-13.504-3.472c-8.88,0-17.536,4.144-22.432,11.616c-4.192,6.352-4.672,13.744-2.224,20.272
	C162.144,382.4,162.88,380.976,163.776,379.6z"/>
</svg>