<?xml version="1.0" encoding="iso-8859-1"?>
<!-- Uploaded to: SVG Repo, www.svgrepo.com, Generator: SVG Repo Mixer Tools -->
<svg height="800px" width="800px" version="1.1" id="Layer_1" xmlns="http://www.w3.org/2000/svg" xmlns:xlink="http://www.w3.org/1999/xlink" 
	 viewBox="0 0 512 512" xml:space="preserve">
<circle style="fill:#FCD063;" cx="256" cy="256" r="256"/>
<path style="fill:#F7B84E;" d="M420.256,59.744C457.504,104.208,480,161.456,480,224c0,141.376-114.624,256-256,256
	c-62.544,0-119.792-22.496-164.256-59.744C106.704,476.32,177.152,512,256,512c141.376,0,256-114.624,256-256
	C512,177.152,476.32,106.704,420.256,59.744z"/>
<g>
	<path style="fill:#C98E3F;" d="M325.776,368c-4.608,0-9.264-1.12-13.504-3.472c-29.984-16.592-82.592-16.592-112.576,0
		c-12.368,6.864-28.48,3.216-35.952-8.144s-3.488-26.128,8.88-32.992c46.736-25.872,119.968-25.872,166.704,0
		c12.368,6.864,16.352,21.632,8.88,32.992C343.312,363.856,334.656,368,325.776,368z"/>
	<circle style="fill:#C98E3F;" cx="160" cy="240" r="32"/>
	<circle style="fill:#C98E3F;" cx="352" cy="240" r="32"/>
</g>
<g>
	<path style="fill:#AB7934;" d="M172.64,339.408c46.736-25.872,119.968-25.872,166.704,0c5.44,3.024,9.152,7.6,11.088,12.72
		c4.16-10.56-0.224-22.688-11.088-28.72c-46.736-25.872-119.968-25.872-166.704,0c-10.88,6.032-15.248,18.16-11.088,28.72
		C163.488,347.008,167.2,342.432,172.64,339.408z"/>
	<path style="fill:#AB7934;" d="M160,224c14.896,0,27.296,10.224,30.864,24c0.672-2.576,1.136-5.216,1.136-8
		c0-17.664-14.336-32-32-32s-32,14.336-32,32c0,2.784,0.464,5.424,1.136,8C132.704,234.224,145.104,224,160,224z"/>
	<path style="fill:#AB7934;" d="M352,224c14.896,0,27.296,10.224,30.88,24c0.656-2.576,1.12-5.216,1.12-8c0-17.664-14.336-32-32-32
		s-32,14.336-32,32c0,2.784,0.464,5.424,1.12,8C324.704,234.224,337.104,224,352,224z"/>
</g>
<g>
	<circle style="fill:#F7B84E;" cx="408" cy="296" r="24"/>
	<circle style="fill:#F7B84E;" cx="104" cy="296" r="24"/>
</g>
</svg>