<?xml version="1.0" encoding="iso-8859-1"?>
<!-- Uploaded to: SVG Repo, www.svgrepo.com, Generator: SVG Repo Mixer Tools -->
<svg version="1.1" id="Layer_1" xmlns="http://www.w3.org/2000/svg" xmlns:xlink="http://www.w3.org/1999/xlink" 
	 viewBox="0 0 512 512" xml:space="preserve">
<circle style="fill:#FCD063;" cx="256" cy="256" r="256"/>
<path style="fill:#F7B84E;" d="M420.256,59.744C457.504,104.208,480,161.456,480,224c0,141.376-114.624,256-256,256
	c-62.544,0-119.792-22.496-164.256-59.744C106.704,476.32,177.152,512,256,512c141.376,0,256-114.624,256-256
	C512,177.152,476.32,106.704,420.256,59.744z"/>
<circle style="fill:#C98E3F;" cx="256" cy="352" r="32"/>
<path style="fill:#AB7934;" d="M256,336c14.896,0,27.296,10.224,30.88,24c0.656-2.56,1.12-5.216,1.12-8c0-17.664-14.336-32-32-32
	s-32,14.336-32,32c0,2.784,0.464,5.44,1.136,8C228.704,346.224,241.104,336,256,336z"/>
<g>
	<circle style="fill:#F7B84E;" cx="408" cy="280" r="24"/>
	<circle style="fill:#F7B84E;" cx="104" cy="280" r="24"/>
</g>
<g>
	<rect x="320" y="224" style="fill:#50BEE8;" width="64" height="288"/>
	<rect x="128" y="224" style="fill:#50BEE8;" width="64" height="288"/>
</g>
<circle style="fill:#C98E3F;" cx="160" cy="224" r="32"/>
<path style="fill:#AB7934;" d="M160,208c14.896,0,27.296,10.224,30.864,24c0.672-2.576,1.136-5.216,1.136-8
	c0-17.664-14.336-32-32-32s-32,14.336-32,32c0,2.784,0.464,5.424,1.136,8C132.704,218.224,145.104,208,160,208z"/>
<circle style="fill:#C98E3F;" cx="352" cy="224" r="32"/>
<path style="fill:#AB7934;" d="M352,208c14.896,0,27.296,10.224,30.88,24c0.656-2.576,1.12-5.216,1.12-8c0-17.664-14.336-32-32-32
	s-32,14.336-32,32c0,2.784,0.464,5.424,1.12,8C324.704,218.224,337.104,208,352,208z"/>
</svg>