<?xml version="1.0" encoding="iso-8859-1"?>
<!-- Uploaded to: SVG Repo, www.svgrepo.com, Generator: SVG Repo Mixer Tools -->
<svg height="800px" width="800px" version="1.1" id="Layer_1" xmlns="http://www.w3.org/2000/svg" xmlns:xlink="http://www.w3.org/1999/xlink" 
	 viewBox="0 0 512 512" xml:space="preserve">
<circle style="fill:#FCD063;" cx="256" cy="256" r="256"/>
<path style="fill:#F7B84E;" d="M420.256,59.744C457.504,104.208,480,161.456,480,224c0,141.376-114.624,256-256,256
	c-62.544,0-119.792-22.496-164.256-59.744C106.704,476.32,177.152,512,256,512c141.376,0,256-114.624,256-256
	C512,177.152,476.32,106.704,420.256,59.744z"/>
<path style="fill:#C98E3F;" d="M168.72,384h174.56c4.816,0,8.72-3.584,8.72-8c0-48.528-43.056-88-96-88s-96,39.472-96,88
	C160,380.416,163.904,384,168.72,384z"/>
<path style="fill:#AB7934;" d="M256,304c48.336,0,88.336,32.96,94.944,75.632c0.624-1.104,1.056-2.304,1.056-3.632
	c0-48.528-43.056-88-96-88s-96,39.472-96,88c0,1.328,0.432,2.528,1.056,3.632C167.664,336.96,207.664,304,256,304z"/>
<path style="fill:#C98E3F;" d="M198.624,208l20.688-20.688c6.256-6.256,6.256-16.368,0-22.624s-16.368-6.256-22.624,0L176,185.376
	l-20.688-20.688c-6.256-6.256-16.368-6.256-22.624,0s-6.256,16.368,0,22.624L153.376,208l-20.688,20.688
	c-6.256,6.256-6.256,16.368,0,22.624c3.12,3.12,7.216,4.688,11.312,4.688s8.192-1.568,11.312-4.688L176,230.624l20.688,20.688
	c3.12,3.12,7.216,4.688,11.312,4.688s8.192-1.568,11.312-4.688c6.256-6.256,6.256-16.368,0-22.624L198.624,208z"/>
<g>
	<path style="fill:#AB7934;" d="M132.688,180.688c6.256-6.256,16.368-6.256,22.624,0L176,201.376l20.688-20.688
		c6.256-6.256,16.368-6.256,22.624,0c0.976,0.976,1.536,2.176,2.208,3.312c3.616-6.128,3.072-14.032-2.208-19.312
		c-6.256-6.256-16.368-6.256-22.624,0L176,185.376l-20.688-20.688c-6.256-6.256-16.368-6.256-22.624,0
		c-5.28,5.28-5.824,13.184-2.208,19.312C131.152,182.864,131.712,181.664,132.688,180.688z"/>
	<path style="fill:#AB7934;" d="M132.688,244.688L153.376,224v-16l-20.688,20.688c-5.28,5.28-5.824,13.184-2.208,19.312
		C131.152,246.864,131.712,245.664,132.688,244.688z"/>
	<path style="fill:#AB7934;" d="M198.624,208v16l20.688,20.688c0.976,0.976,1.536,2.176,2.208,3.312
		c3.616-6.128,3.072-14.032-2.208-19.312L198.624,208z"/>
</g>
<path style="fill:#C98E3F;" d="M358.624,208l20.688-20.688c6.256-6.256,6.256-16.368,0-22.624s-16.368-6.256-22.624,0L336,185.376
	l-20.688-20.688c-6.256-6.256-16.368-6.256-22.624,0s-6.256,16.368,0,22.624L313.376,208l-20.688,20.688
	c-6.256,6.256-6.256,16.368,0,22.624c3.12,3.12,7.216,4.688,11.312,4.688s8.192-1.568,11.312-4.688L336,230.624l20.688,20.688
	c3.12,3.12,7.216,4.688,11.312,4.688s8.192-1.568,11.312-4.688c6.256-6.256,6.256-16.368,0-22.624L358.624,208z"/>
<g>
	<path style="fill:#AB7934;" d="M292.864,180.688c6.256-6.256,16.368-6.256,22.624,0l20.688,20.688l20.688-20.688
		c6.256-6.256,16.368-6.256,22.624,0c0.992,0.976,1.536,2.176,2.208,3.312c3.632-6.128,3.056-14.032-2.208-19.312
		c-6.256-6.256-16.368-6.256-22.624,0l-20.688,20.688l-20.688-20.688c-6.256-6.256-16.368-6.256-22.624,0
		c-5.264,5.28-5.824,13.184-2.208,19.312C291.328,182.864,291.872,181.664,292.864,180.688z"/>
	<path style="fill:#AB7934;" d="M292.864,244.688L313.552,224l-0.176-16l-20.512,20.688c-5.264,5.28-5.824,13.184-2.208,19.312
		C291.328,246.864,291.872,245.664,292.864,244.688z"/>
	<path style="fill:#AB7934;" d="M358.624,208l0.176,16l20.688,20.688c0.992,0.976,1.536,2.176,2.208,3.312
		c3.632-6.128,3.056-14.032-2.208-19.312L358.624,208z"/>
</g>
</svg>