<?xml version="1.0" encoding="iso-8859-1"?>
<!-- Uploaded to: SVG Repo, www.svgrepo.com, Generator: SVG Repo Mixer Tools -->
<svg height="800px" width="800px" version="1.1" id="Layer_1" xmlns="http://www.w3.org/2000/svg" xmlns:xlink="http://www.w3.org/1999/xlink" 
	 viewBox="0 0 512 512" xml:space="preserve">
<path style="fill:#F15642;" d="M458.464,99.744C473.024,58.832,453.568,0,453.568,0s-18.416,27.456-45.28,50.56
	C365.68,18.944,313.12,0,256,0C195.312,0,139.632,21.232,95.744,56.512C64.992,32.48,43.216,0,43.216,0S19.2,72.224,44.176,112.256
	C16.32,153.232,0,202.704,0,256c0,141.376,114.624,256,256,256s256-114.624,256-256C512,197.088,491.904,143.008,458.464,99.744z"/>
<path style="fill:#DA4E3C;" d="M420.256,59.744C457.504,104.208,480,161.456,480,224c0,141.376-114.624,256-256,256
	c-62.544,0-119.792-22.496-164.256-59.744C106.704,476.32,177.152,512,256,512c141.376,0,256-114.624,256-256
	C512,177.152,476.32,106.704,420.256,59.744z"/>
<path style="fill:#B33B32;" d="M199.984,248c-4.576,0-9.2-1.312-13.296-4.032l-48-32c-11.024-7.344-14-22.256-6.656-33.28
	s22.24-14.016,33.28-6.656l48,32c11.024,7.344,14,22.256,6.656,33.28C215.344,244.256,207.728,248,199.984,248z"/>
<path style="fill:#8F3028;" d="M132.032,202.688c7.344-11.024,22.24-14.016,33.28-6.656l48,32c3.168,2.112,5.584,4.88,7.36,7.952
	c6.304-10.88,3.248-24.88-7.36-31.952l-48-32c-11.04-7.36-25.936-4.368-33.28,6.656c-5.248,7.872-5.152,17.664-0.704,25.328
	C131.584,203.584,131.744,203.12,132.032,202.688z"/>
<path style="fill:#B33B32;" d="M312.032,248c-7.76,0-15.376-3.744-20-10.688c-7.344-11.024-4.368-25.936,6.656-33.28l48-32
	c11.024-7.36,25.936-4.368,33.28,6.656s4.368,25.936-6.656,33.28l-48,32C321.216,246.688,316.592,248,312.032,248z"/>
<path style="fill:#8F3028;" d="M379.968,202.688c-7.344-11.024-22.24-14.016-33.28-6.656l-48,32c-3.152,2.112-5.584,4.88-7.36,7.952
	c-6.304-10.88-3.232-24.88,7.36-31.952l48-32c11.04-7.36,25.936-4.368,33.28,6.656c5.248,7.872,5.152,17.664,0.704,25.328
	C380.416,203.584,380.256,203.12,379.968,202.688z"/>
<g>
	<circle style="fill:#DA4E3C;" cx="408" cy="264" r="24"/>
	<circle style="fill:#DA4E3C;" cx="104" cy="264" r="24"/>
</g>
<path style="fill:#B33B32;" d="M343.28,304H168.72c-4.816,0-8.72,3.584-8.72,8c0,48.528,43.056,88,96,88s96-39.472,96-88
	C352,307.584,348.096,304,343.28,304z"/>
<path style="fill:#8F3028;" d="M351.36,320c0.288-2.656,0.64-5.28,0.64-8c0-4.416-3.904-8-8.72-8H168.72c-4.816,0-8.72,3.584-8.72,8
	c0,2.72,0.352,5.344,0.64,8H351.36z"/>
</svg>