<?xml version="1.0" encoding="iso-8859-1"?>
<!-- Uploaded to: SVG Repo, www.svgrepo.com, Generator: SVG Repo Mixer Tools -->
<svg height="800px" width="800px" version="1.1" id="Layer_1" xmlns="http://www.w3.org/2000/svg" xmlns:xlink="http://www.w3.org/1999/xlink" 
	 viewBox="0 0 512 512" xml:space="preserve">
<circle style="fill:#FCD063;" cx="256" cy="256" r="256"/>
<path style="fill:#F7B84E;" d="M420.256,59.744C457.504,104.208,480,161.456,480,224c0,141.376-114.624,256-256,256
	c-62.544,0-119.792-22.496-164.256-59.744C106.704,476.32,177.152,512,256,512c141.376,0,256-114.624,256-256
	C512,177.152,476.32,106.704,420.256,59.744z"/>
<circle style="fill:#C98E3F;" cx="176" cy="272" r="32"/>
<path style="fill:#AB7934;" d="M176,256c14.896,0,27.296,10.224,30.864,24c0.672-2.56,1.136-5.216,1.136-8c0-17.664-14.336-32-32-32
	s-32,14.336-32,32c0,2.784,0.464,5.44,1.136,8C148.704,266.224,161.104,256,176,256z"/>
<circle style="fill:#C98E3F;" cx="336" cy="272" r="32"/>
<g>
	<circle style="fill:#F7B84E;" cx="408" cy="312" r="24"/>
	<circle style="fill:#F7B84E;" cx="104" cy="312" r="24"/>
</g>
<path style="fill:#AB7934;" d="M336,256c14.896,0,27.296,10.224,30.88,24c0.656-2.56,1.12-5.216,1.12-8c0-17.664-14.336-32-32-32
	s-32,14.336-32,32c0,2.784,0.464,5.44,1.12,8C308.704,266.224,321.104,256,336,256z"/>
<path style="fill:#C98E3F;" d="M304,416.224c-20.88,0-41.76-6.544-58.032-19.664c-20.576-16.56-55.36-16.56-75.936,0
	c-6.88,5.536-16.976,4.464-22.496-2.416c-5.552-6.896-4.448-16.96,2.432-22.48c32.544-26.224,83.52-26.224,116.064,0
	c20.576,16.56,55.36,16.56,75.936,0c6.864-5.568,16.944-4.464,22.496,2.416c5.536,6.896,4.432,16.96-2.432,22.48
	C345.744,409.664,324.88,416.224,304,416.224z"/>
<path style="fill:#AB7934;" d="M149.968,387.872c32.544-26.224,83.52-26.224,116.064,0c20.576,16.56,55.36,16.56,75.936,0
	c6.864-5.568,16.944-4.464,22.496,2.416c0.496,0.64,0.656,1.392,1.056,2.064c3.408-5.6,3.28-12.896-1.056-18.288
	c-5.568-6.896-15.648-7.984-22.496-2.416c-20.576,16.56-55.36,16.56-75.936,0c-32.544-26.224-83.52-26.224-116.064,0
	c-6.256,5.024-7.44,13.68-3.504,20.416C147.408,390.528,148.48,389.056,149.968,387.872z"/>
</svg>