<?xml version="1.0" encoding="iso-8859-1"?>
<!-- Uploaded to: SVG Repo, www.svgrepo.com, Generator: SVG Repo Mixer Tools -->
<svg height="800px" width="800px" version="1.1" id="Layer_1" xmlns="http://www.w3.org/2000/svg" xmlns:xlink="http://www.w3.org/1999/xlink" 
	 viewBox="0 0 512 512" xml:space="preserve">
<circle style="fill:#FCD063;" cx="256" cy="256" r="256"/>
<path style="fill:#F7B84E;" d="M420.256,59.744C457.504,104.208,480,161.456,480,224c0,141.376-114.624,256-256,256
	c-62.544,0-119.792-22.496-164.256-59.744C106.704,476.32,177.152,512,256,512c141.376,0,256-114.624,256-256
	C512,177.152,476.32,106.704,420.256,59.744z"/>
<circle style="fill:#C98E3F;" cx="112" cy="224" r="32"/>
<path style="fill:#AB7934;" d="M112,208c14.896,0,27.296,10.224,30.864,24c0.672-2.576,1.136-5.216,1.136-8
	c0-17.664-14.336-32-32-32s-32,14.336-32,32c0,2.784,0.464,5.424,1.136,8C84.704,218.224,97.104,208,112,208z"/>
<circle style="fill:#C98E3F;" cx="400" cy="224" r="32"/>
<path style="fill:#AB7934;" d="M400,208c14.896,0,27.296,10.224,30.88,24c0.656-2.576,1.12-5.216,1.12-8c0-17.664-14.336-32-32-32
	s-32,14.336-32,32c0,2.784,0.464,5.424,1.12,8C372.704,218.224,385.104,208,400,208z"/>
<g>
	<circle style="fill:#F7B84E;" cx="408" cy="296" r="24"/>
	<circle style="fill:#F7B84E;" cx="104" cy="296" r="24"/>
</g>
<path style="fill:#C98E3F;" d="M336,312c0,13.2-10.8,24-24,24H200c-13.2,0-24-10.8-24-24l0,0c0-13.2,10.8-24,24-24h112
	C325.2,288,336,298.8,336,312L336,312z"/>
<path style="fill:#AB7934;" d="M177.488,304h157.024c-3.328-9.28-12.128-16-22.512-16H200C189.616,288,180.8,294.72,177.488,304z"/>
</svg>