<?xml version="1.0" encoding="iso-8859-1"?>
<!-- Uploaded to: SVG Repo, www.svgrepo.com, Generator: SVG Repo Mixer Tools -->
<svg height="800px" width="800px" version="1.1" id="Layer_1" xmlns="http://www.w3.org/2000/svg" xmlns:xlink="http://www.w3.org/1999/xlink" 
	 viewBox="0 0 512 512" xml:space="preserve">
<circle style="fill:#FCD063;" cx="256" cy="256" r="256"/>
<path style="fill:#F7B84E;" d="M420.256,59.744C457.504,104.208,480,161.456,480,224c0,141.376-114.624,256-256,256
	c-62.544,0-119.792-22.496-164.256-59.744C106.704,476.32,177.152,512,256,512c141.376,0,256-114.624,256-256
	C512,177.152,476.32,106.704,420.256,59.744z"/>
<path style="fill:#C98E3F;" d="M401.472,288H110.544C102.512,288,96,293.968,96,301.344C96,382.224,167.776,448,256,448
	s160-65.776,160-146.656C416,293.968,409.504,288,401.472,288z"/>
<path style="fill:#AB7934;" d="M414.944,314.656c0.464-4.4,1.056-8.784,1.056-13.312c0-7.376-6.496-13.344-14.528-13.344H110.544
	C102.512,288,96,293.968,96,301.344c0,4.528,0.608,8.912,1.072,13.312H414.944z"/>
<g>
	<circle style="fill:#F7B84E;" cx="424" cy="232" r="24"/>
	<circle style="fill:#F7B84E;" cx="88" cy="232" r="24"/>
</g>
<g>
	<path style="fill:#C98E3F;" d="M385.088,224c-1.664,0-3.328-0.416-4.848-1.248L352,207.264l-28.256,15.488
		c-3.52,1.936-7.776,1.6-11.008-0.832c-3.216-2.448-4.816-6.592-4.144-10.672l5.392-32.752l-22.848-23.184
		c-2.848-2.912-3.888-7.248-2.656-11.216c1.232-3.952,4.496-6.832,8.432-7.424l31.584-4.784l14.112-29.808
		C344.384,98.352,348.016,96,352,96c3.968,0,7.6,2.352,9.36,6.064l14.128,29.808l31.584,4.784c3.92,0.592,7.184,3.472,8.416,7.424
		c1.232,3.968,0.208,8.32-2.672,11.216L390,178.48l5.392,32.752c0.672,4.096-0.96,8.224-4.144,10.672
		C389.424,223.296,387.248,224,385.088,224z"/>
	<path style="fill:#C98E3F;" d="M193.088,224c-1.664,0-3.328-0.416-4.848-1.248L160,207.264l-28.256,15.488
		c-3.52,1.936-7.776,1.6-11.008-0.832c-3.216-2.448-4.816-6.592-4.144-10.672l5.376-32.752l-22.816-23.184
		c-2.848-2.912-3.888-7.264-2.656-11.232c1.232-3.952,4.496-6.832,8.448-7.424l31.568-4.784l14.112-29.808
		C152.384,98.352,156.016,96,160,96c3.968,0,7.6,2.352,9.36,6.064l14.128,29.808l31.568,4.784c3.936,0.592,7.2,3.472,8.432,7.424
		c1.232,3.968,0.192,8.32-2.672,11.216L198,178.48l5.392,32.752c0.672,4.096-0.944,8.224-4.144,10.672
		C197.424,223.296,195.264,224,193.088,224z"/>
</g>
<g>
	<path style="fill:#AB7934;" d="M122,178.48l-5.376,32.752c-0.416,2.544,0.288,4.944,1.456,7.104L122,194.48V178.48z"/>
	<path style="fill:#AB7934;" d="M99.408,155.568c1.536-1.488,3.392-2.576,5.536-2.896l31.568-4.784l14.112-29.808
		c1.76-3.728,5.392-6.08,9.376-6.08c3.968,0,7.6,2.352,9.36,6.064l14.128,29.808l31.568,4.784c2.144,0.32,3.984,1.408,5.504,2.896
		l0.256-0.256c2.864-2.912,3.904-7.248,2.672-11.216c-1.232-3.952-4.496-6.832-8.432-7.424l-31.568-4.784l-14.128-29.808
		C167.6,98.352,163.968,96,160,96c-3.984,0-7.616,2.352-9.376,6.064l-14.112,29.808l-31.568,4.8
		c-3.952,0.592-7.216,3.472-8.448,7.408c-1.232,3.968-0.192,8.32,2.656,11.216L99.408,155.568z"/>
	<path style="fill:#AB7934;" d="M198,194.48l3.92,23.84c1.184-2.16,1.888-4.544,1.472-7.088L198,178.48V194.48z"/>
	<path style="fill:#AB7934;" d="M314,178.48l-5.392,32.752c-0.416,2.544,0.288,4.944,1.456,7.104L314,194.48V178.48z"/>
	<path style="fill:#AB7934;" d="M291.408,155.568c1.536-1.488,3.392-2.592,5.536-2.912l31.584-4.784l14.112-29.808
		c1.744-3.712,5.376-6.064,9.36-6.064c3.968,0,7.6,2.352,9.36,6.064l14.128,29.808l31.584,4.784c2.128,0.32,3.968,1.408,5.504,2.896
		l0.256-0.256c2.88-2.912,3.904-7.248,2.672-11.216c-1.232-3.952-4.496-6.832-8.416-7.424l-31.584-4.784l-14.128-29.808
		C359.6,98.352,355.968,96,352,96c-3.984,0-7.616,2.352-9.376,6.064l-14.112,29.808l-31.584,4.784
		c-3.936,0.592-7.2,3.472-8.432,7.424c-1.232,3.968-0.192,8.32,2.656,11.216L291.408,155.568z"/>
	<path style="fill:#AB7934;" d="M390,194.48l3.92,23.84c1.168-2.16,1.888-4.544,1.472-7.088L390,178.48V194.48z"/>
</g>
</svg>