<?xml version="1.0" encoding="iso-8859-1"?>
<!-- Uploaded to: SVG Repo, www.svgrepo.com, Generator: SVG Repo Mixer Tools -->
<svg version="1.1" id="Layer_1" xmlns="http://www.w3.org/2000/svg" xmlns:xlink="http://www.w3.org/1999/xlink" 
	 viewBox="0 0 512 512" xml:space="preserve">
<circle style="fill:#FCD063;" cx="256" cy="256" r="256"/>
<g>
	<path style="fill:#F7B84E;" d="M420.256,59.744C457.504,104.208,480,161.456,480,224c0,141.376-114.624,256-256,256
		c-62.544,0-119.792-22.496-164.256-59.744C106.704,476.32,177.152,512,256,512c141.376,0,256-114.624,256-256
		C512,177.152,476.32,106.704,420.256,59.744z"/>
	<circle style="fill:#F7B84E;" cx="424" cy="232" r="24"/>
	<circle style="fill:#F7B84E;" cx="88" cy="232" r="24"/>
</g>
<path style="fill:#FFFFFF;" d="M401.472,288H110.544C102.512,288,96,293.968,96,301.344C96,382.224,167.776,448,256,448
	s160-65.776,160-146.656C416,293.968,409.504,288,401.472,288z"/>
<g>
	<path style="fill:#E2E5E7;" d="M414.944,314.656c0.464-4.4,1.056-8.784,1.056-13.312c0-7.376-6.496-13.344-14.528-13.344H110.544
		C102.512,288,96,293.968,96,301.344c0,4.528,0.608,8.912,1.072,13.312H414.944z"/>
	<path style="fill:#E2E5E7;" d="M128,388.976c4.896,6,10.176,11.68,16,16.944V288h-16V388.976z"/>
	<path style="fill:#E2E5E7;" d="M208,441.232c5.232,1.52,10.56,2.8,16,3.808V288h-16V441.232z"/>
	<path style="fill:#E2E5E7;" d="M288,445.04c5.44-1.008,10.784-2.304,16-3.808V288h-16V445.04z"/>
	<path style="fill:#E2E5E7;" d="M384,388.976V288h-16v117.904C373.808,400.656,379.088,394.976,384,388.976z"/>
</g>
<g>
	<rect x="128" y="288" style="fill:#CAD1D8;" width="16" height="26.656"/>
	<rect x="208" y="288" style="fill:#CAD1D8;" width="16" height="26.656"/>
	<rect x="288" y="288" style="fill:#CAD1D8;" width="16" height="26.656"/>
	<rect x="368" y="288" style="fill:#CAD1D8;" width="16" height="26.656"/>
</g>
<path style="fill:#C98E3F;" d="M175.92,222.304c-12.096-1.344-21.056-5.072-28.976-10.592c-3.728-3.888-3.728-10.464-1.04-14.048
	c2.24-2.992,7.92-5.36,12.992-1.648c3.888,2.688,10.304,5.232,17.024,6.576v-30.176c-17.024-3.728-34.192-9.104-31.504-32.704
	c1.488-16.88,15.824-25.088,31.504-27.472v-2.4c0-13.296,16.864-13.296,16.864,0v3.6c6.576,1.2,13.152,2.848,18.528,6.72
	c10.608,7.616,0,22.256-9.408,15.536c-2.544-1.04-5.072-2.384-9.12-3.584v27.184c15.68,4.032,31.216,10.736,31.216,30.016
	c0,18.528-13.888,29.12-31.216,31.664v3.728c0,13.296-16.864,13.296-16.864,0V222.304z M175.92,130.768
	c-7.92,1.344-13.136,4.928-13.136,12.848c0,6.56,5.232,9.392,13.136,11.952V130.768z M192.784,202.608
	c6.576-2.688,11.952-6.576,11.952-14.496c-1.328-5.072-5.36-8.96-11.952-10.448V202.608z"/>
<g>
	<path style="fill:#AB7934;" d="M175.92,162.336v-6.768c-6.496-2.08-10.992-4.496-12.464-8.88c-0.32,1.152-0.672,2.288-0.672,3.696
		C162.768,156.96,168,159.792,175.92,162.336z"/>
	<path style="fill:#AB7934;" d="M192.784,166.064c14.736,3.792,29.152,10.08,30.88,26.784c0.112-1.184,0.336-2.288,0.336-3.536
		c0-19.264-15.536-25.984-31.216-30.016V166.064z"/>
	<path style="fill:#AB7934;" d="M204.72,194.88c-0.192-0.72-0.56-1.36-0.848-2.016c-1.712,4.816-6,7.664-11.088,9.744v6.768
		C199.36,206.688,204.72,202.8,204.72,194.88z"/>
	<path style="fill:#AB7934;" d="M145.904,204.432c2.24-2.992,7.92-5.36,12.992-1.648c3.888,2.688,10.304,5.232,17.024,6.576v-6.768
		c-6.72-1.344-13.136-3.888-17.024-6.576c-5.072-3.728-10.752-1.344-12.992,1.648c-1.808,2.416-2.272,6.16-1.328,9.568
		C144.896,206.208,145.312,205.232,145.904,204.432z"/>
	<path style="fill:#AB7934;" d="M144.4,146.496c1.488-16.88,15.824-25.088,31.504-27.472v-2.384c0-13.296,16.864-13.296,16.864,0
		v3.584c6.576,1.2,13.152,2.848,18.528,6.72c1.888,1.36,2.912,2.96,3.584,4.592c1.488-3.616,0.976-8.096-3.584-11.36
		c-5.376-3.872-11.952-5.52-18.528-6.72v-3.6c0-13.296-16.864-13.296-16.864,0v2.4c-15.68,2.384-30.016,10.592-31.504,27.472
		c-0.352,3.12-0.32,5.904-0.016,8.416C144.416,147.568,144.336,147.104,144.4,146.496z"/>
</g>
<path style="fill:#C98E3F;" d="M319.904,222.304c-12.096-1.344-21.04-5.072-28.976-10.592c-3.712-3.888-3.712-10.464-1.024-14.048
	c2.224-2.992,7.904-5.36,12.992-1.648c3.888,2.688,10.304,5.232,17.008,6.576v-30.176c-17.008-3.728-34.192-9.104-31.504-32.704
	c1.504-16.88,15.824-25.088,31.504-27.472v-2.4c0-13.296,16.88-13.296,16.88,0v3.6c6.576,1.2,13.152,2.848,18.528,6.72
	c10.592,7.616,0,22.256-9.408,15.536c-2.544-1.04-5.088-2.384-9.12-3.584v27.184c15.68,4.032,31.216,10.736,31.216,30.016
	c0,18.528-13.888,29.12-31.216,31.664v3.728c0,13.296-16.88,13.296-16.88,0V222.304z M319.904,130.768
	c-7.904,1.344-13.12,4.928-13.12,12.848c0,6.56,5.216,9.392,13.12,11.952V130.768z M336.784,202.608
	c6.576-2.688,11.936-6.576,11.936-14.496c-1.328-5.072-5.36-8.96-11.936-10.448V202.608z"/>
<g>
	<path style="fill:#AB7934;" d="M319.808,162.336v-6.768c-6.48-2.08-10.992-4.496-12.464-8.88c-0.32,1.152-0.656,2.288-0.656,3.696
		C306.688,156.96,311.904,159.792,319.808,162.336z"/>
	<path style="fill:#AB7934;" d="M336.688,166.064c14.736,3.792,29.152,10.08,30.88,26.784c0.128-1.168,0.336-2.288,0.336-3.536
		c0-19.264-15.536-25.984-31.216-30.016V166.064z"/>
	<path style="fill:#AB7934;" d="M348.624,194.88c-0.192-0.72-0.544-1.36-0.848-2.016c-1.712,4.816-6,7.664-11.088,9.744v6.768
		C343.264,206.688,348.624,202.8,348.624,194.88z"/>
	<path style="fill:#AB7934;" d="M289.808,204.432c2.224-2.992,7.904-5.36,12.992-1.648c3.888,2.688,10.304,5.232,17.008,6.576
		v-6.768c-6.72-1.344-13.12-3.888-17.008-6.576c-5.072-3.728-10.768-1.344-12.992,1.648c-1.808,2.416-2.288,6.16-1.328,9.568
		C288.816,206.208,289.216,205.232,289.808,204.432z"/>
	<path style="fill:#AB7934;" d="M288.32,146.496c1.504-16.88,15.824-25.088,31.504-27.472v-2.384c0-13.296,16.88-13.296,16.88,0
		v3.584c6.576,1.2,13.152,2.848,18.528,6.72c1.872,1.36,2.912,2.96,3.568,4.592c1.504-3.616,0.976-8.096-3.568-11.36
		c-5.376-3.872-11.952-5.52-18.528-6.72v-3.6c0-13.296-16.88-13.296-16.88,0v2.4c-15.664,2.384-30,10.592-31.504,27.472
		c-0.368,3.12-0.32,5.904-0.032,8.416C288.336,147.568,288.256,147.104,288.32,146.496z"/>
</g>
</svg>