<?xml version="1.0" encoding="iso-8859-1"?>
<!-- Uploaded to: SVG Repo, www.svgrepo.com, Generator: SVG Repo Mixer Tools -->
<svg version="1.1" id="Layer_1" xmlns="http://www.w3.org/2000/svg" xmlns:xlink="http://www.w3.org/1999/xlink" 
	 viewBox="0 0 512 512" xml:space="preserve">
<circle style="fill:#FCD063;" cx="256" cy="256" r="256"/>
<g>
	<path style="fill:#F7B84E;" d="M420.256,59.744C457.504,104.208,480,161.456,480,224c0,141.376-114.624,256-256,256
		c-62.544,0-119.776-22.496-164.256-59.744C106.704,476.32,177.152,512,256,512c141.376,0,256-114.624,256-256
		C512,177.152,476.32,106.704,420.256,59.744z"/>
	<circle style="fill:#F7B84E;" cx="424" cy="232" r="24"/>
	<circle style="fill:#F7B84E;" cx="88" cy="232" r="24"/>
</g>
<path style="fill:#C98E3F;" d="M192,208c-8.848,0-16-7.168-16-16c0-8.816-7.168-16-16-16s-16,7.184-16,16c0,8.832-7.152,16-16,16
	s-16-7.168-16-16c0-26.464,21.536-48,48-48s48,21.536,48,48C208,200.832,200.848,208,192,208z"/>
<path style="fill:#AB7934;" d="M160,160c22.944,0,42.128,16.208,46.848,37.744c0.688-1.792,1.152-3.712,1.152-5.744
	c0-26.464-21.536-48-48-48s-48,21.536-48,48c0,2.032,0.464,3.952,1.152,5.744C117.872,176.208,137.056,160,160,160z"/>
<path style="fill:#C98E3F;" d="M384,208c-8.848,0-16-7.168-16-16c0-8.816-7.168-16-16-16s-16,7.184-16,16c0,8.832-7.152,16-16,16
	s-16-7.168-16-16c0-26.464,21.536-48,48-48s48,21.536,48,48C400,200.832,392.848,208,384,208z"/>
<path style="fill:#AB7934;" d="M352,160c22.944,0,42.128,16.208,46.848,37.744c0.688-1.792,1.152-3.712,1.152-5.744
	c0-26.464-21.536-48-48-48s-48,21.536-48,48c0,2.032,0.464,3.952,1.152,5.744C309.872,176.208,329.056,160,352,160z"/>
<path style="fill:#FFFFFF;" d="M401.472,288H110.528C102.496,288,96,293.968,96,301.344C96,382.224,167.776,448,256,448
	s160-65.776,160-146.656C416,293.968,409.504,288,401.472,288z"/>
<g>
	<path style="fill:#E2E5E7;" d="M414.944,314.656c0.464-4.4,1.056-8.784,1.056-13.312c0-7.376-6.496-13.344-14.528-13.344H110.528
		C102.496,288,96,293.968,96,301.344c0,4.528,0.592,8.912,1.056,13.312H414.944z"/>
	<path style="fill:#E2E5E7;" d="M128,388.976c4.912,6,10.192,11.68,16,16.944V288h-16V388.976z"/>
	<path style="fill:#E2E5E7;" d="M208,441.232c5.216,1.52,10.56,2.8,16,3.808V288h-16V441.232z"/>
	<path style="fill:#E2E5E7;" d="M288,445.04c5.44-1.008,10.784-2.304,16-3.808V288h-16V445.04z"/>
	<path style="fill:#E2E5E7;" d="M384,388.976V288h-16v117.904C373.808,400.656,379.088,394.976,384,388.976z"/>
</g>
<g>
	<rect x="128" y="288" style="fill:#CAD1D8;" width="16" height="26.656"/>
	<rect x="208" y="288" style="fill:#CAD1D8;" width="16" height="26.656"/>
	<rect x="288" y="288" style="fill:#CAD1D8;" width="16" height="26.656"/>
	<rect x="368" y="288" style="fill:#CAD1D8;" width="16" height="26.656"/>
</g>
</svg>