<?xml version="1.0" encoding="iso-8859-1"?>
<!-- Uploaded to: SVG Repo, www.svgrepo.com, Generator: SVG Repo Mixer Tools -->
<svg height="800px" width="800px" version="1.1" id="Layer_1" xmlns="http://www.w3.org/2000/svg" xmlns:xlink="http://www.w3.org/1999/xlink" 
	 viewBox="0 0 512 512" xml:space="preserve">
<circle style="fill:#E2E5E7;" cx="256" cy="256" r="256"/>
<path style="fill:#CAD1D8;" d="M420.256,59.744C457.504,104.208,480,161.456,480,224c0,141.376-114.624,256-256,256
	c-62.544,0-119.776-22.496-164.256-59.744C106.704,476.32,177.152,512,256,512c141.376,0,256-114.624,256-256
	C512,177.152,476.32,106.704,420.256,59.744z"/>
<circle style="fill:#576D7E;" cx="160" cy="224" r="32"/>
<path style="fill:#35495C;" d="M160,208c14.896,0,27.296,10.224,30.88,24c0.656-2.576,1.12-5.216,1.12-8c0-17.664-14.336-32-32-32
	s-32,14.336-32,32c0,2.784,0.464,5.424,1.12,8C132.704,218.224,145.104,208,160,208z"/>
<g>
	<circle style="fill:#576D7E;" cx="352" cy="224" r="32"/>
	<circle style="fill:#576D7E;" cx="296" cy="328" r="24"/>
	<circle style="fill:#576D7E;" cx="192" cy="144" r="16"/>
	<circle style="fill:#576D7E;" cx="304" cy="144" r="16"/>
	<circle style="fill:#576D7E;" cx="256" cy="272" r="16"/>
	<circle style="fill:#576D7E;" cx="216" cy="328" r="24"/>
	<circle style="fill:#576D7E;" cx="296" cy="392" r="24"/>
	<circle style="fill:#576D7E;" cx="216" cy="392" r="24"/>
</g>
<g>
	<path style="fill:#35495C;" d="M352,208c14.896,0,27.296,10.224,30.88,24c0.656-2.576,1.12-5.216,1.12-8c0-17.664-14.336-32-32-32
		s-32,14.336-32,32c0,2.784,0.464,5.424,1.12,8C324.704,218.224,337.104,208,352,208z"/>
	<path style="fill:#35495C;" d="M216,320c10.432,0,19.216,6.704,22.528,16c0.896-2.512,1.472-5.184,1.472-8
		c0-13.248-10.752-24-24-24s-24,10.752-24,24c0,2.816,0.576,5.488,1.472,8C196.784,326.704,205.568,320,216,320z"/>
	<path style="fill:#35495C;" d="M296,320c10.432,0,19.216,6.704,22.528,16c0.896-2.512,1.472-5.184,1.472-8
		c0-13.248-10.752-24-24-24s-24,10.752-24,24c0,2.816,0.576,5.488,1.472,8C276.784,326.704,285.568,320,296,320z"/>
	<path style="fill:#35495C;" d="M216,384c10.432,0,19.216,6.704,22.528,16c0.896-2.512,1.472-5.184,1.472-8
		c0-13.248-10.752-24-24-24s-24,10.752-24,24c0,2.816,0.576,5.488,1.472,8C196.784,390.704,205.568,384,216,384z"/>
	<path style="fill:#35495C;" d="M296,384c10.432,0,19.216,6.704,22.528,16c0.896-2.512,1.472-5.184,1.472-8
		c0-13.248-10.752-24-24-24s-24,10.752-24,24c0,2.816,0.576,5.488,1.472,8C276.784,390.704,285.568,384,296,384z"/>
</g>
</svg>