<?xml version="1.0" encoding="iso-8859-1"?>
<!-- Uploaded to: SVG Repo, www.svgrepo.com, Generator: SVG Repo Mixer Tools -->
<svg height="800px" width="800px" version="1.1" id="Layer_1" xmlns="http://www.w3.org/2000/svg" xmlns:xlink="http://www.w3.org/1999/xlink" 
	 viewBox="0 0 512 512" xml:space="preserve">
<circle style="fill:#FCD063;" cx="256" cy="256" r="256"/>
<path style="fill:#F7B84E;" d="M420.256,59.744C457.504,104.208,480,161.456,480,224c0,141.376-114.624,256-256,256
	c-62.544,0-119.792-22.496-164.256-59.744C106.704,476.32,177.152,512,256,512c141.376,0,256-114.624,256-256
	C512,177.152,476.32,106.704,420.256,59.744z"/>
<circle style="fill:#C98E3F;" cx="160" cy="224" r="32"/>
<path style="fill:#AB7934;" d="M160,208c14.896,0,27.296,10.224,30.864,24c0.672-2.576,1.136-5.216,1.136-8
	c0-17.664-14.336-32-32-32s-32,14.336-32,32c0,2.784,0.464,5.424,1.136,8C132.704,218.224,145.104,208,160,208z"/>
<circle style="fill:#C98E3F;" cx="224" cy="352" r="32"/>
<path style="fill:#AB7934;" d="M224,336c14.896,0,27.296,10.224,30.864,24c0.672-2.56,1.136-5.216,1.136-8c0-17.664-14.336-32-32-32
	s-32,14.336-32,32c0,2.784,0.464,5.44,1.136,8C196.704,346.224,209.104,336,224,336z"/>
<circle style="fill:#C98E3F;" cx="352" cy="224" r="32"/>
<g>
	<circle style="fill:#F7B84E;" cx="408" cy="280" r="24"/>
	<circle style="fill:#F7B84E;" cx="104" cy="280" r="24"/>
</g>
<path style="fill:#AB7934;" d="M352,208c14.896,0,27.296,10.224,30.88,24c0.656-2.576,1.12-5.216,1.12-8c0-17.664-14.336-32-32-32
	s-32,14.336-32,32c0,2.784,0.464,5.424,1.12,8C324.704,218.224,337.104,208,352,208z"/>
<path style="fill:#F15642;" d="M112,416c-2.56,0-5.104-0.976-7.056-2.88l-45.728-44.928C51.984,361.088,48,351.664,48,341.632
	c0-10.064,3.984-19.504,11.216-26.624C66.448,307.904,76.064,304,86.304,304c9.584,0,18.64,8.4,25.696,14.72
	c7.056-6.32,16.128-14.72,25.728-14.72c10.24,0,19.84,3.904,27.072,11.008c7.248,7.12,11.2,16.56,11.2,26.624
	c0,10.032-3.968,19.472-11.2,26.576l-45.728,44.912C117.12,415.024,114.576,416,112,416z"/>
<path style="fill:#DA4E3C;" d="M59.216,331.008C66.448,323.904,76.064,320,86.304,320c9.584,0,18.64,8.4,25.696,14.72
	c7.056-6.32,16.128-14.72,25.728-14.72c10.24,0,19.84,3.904,27.072,11.008c5.28,5.184,8.752,11.632,10.288,18.608
	c0.576-2.608,0.912-5.28,0.912-7.984c0-10.064-3.968-19.504-11.2-26.624C157.568,307.904,147.968,304,137.728,304
	c-9.6,0-18.672,8.4-25.712,14.72C104.944,312.4,95.888,304,86.304,304c-10.24,0-19.856,3.904-27.088,11.008
	C51.984,322.128,48,331.568,48,341.632c0,2.72,0.352,5.376,0.928,7.984C50.448,342.624,53.952,336.192,59.216,331.008z"/>
</svg>