<?xml version="1.0" encoding="iso-8859-1"?>
<!-- Uploaded to: SVG Repo, www.svgrepo.com, Generator: SVG Repo Mixer Tools -->
<svg height="800px" width="800px" version="1.1" id="Layer_1" xmlns="http://www.w3.org/2000/svg" xmlns:xlink="http://www.w3.org/1999/xlink" 
	 viewBox="0 0 512 512" xml:space="preserve">
<circle style="fill:#FCD063;" cx="256" cy="256" r="256"/>
<path style="fill:#F7B84E;" d="M420.256,59.744C457.504,104.208,480,161.456,480,224c0,141.376-114.624,256-256,256
	c-62.544,0-119.792-22.496-164.256-59.744C106.704,476.32,177.152,512,256,512c141.376,0,256-114.624,256-256
	C512,177.152,476.32,106.704,420.256,59.744z"/>
<path style="fill:#C98E3F;" d="M401.472,288H110.544C102.512,288,96,293.968,96,301.344C96,382.224,167.776,448,256,448
	s160-65.776,160-146.656C416,293.968,409.504,288,401.472,288z"/>
<path style="fill:#AB7934;" d="M414.944,314.656c0.464-4.4,1.056-8.784,1.056-13.312c0-7.376-6.496-13.344-14.528-13.344H110.544
	C102.512,288,96,293.968,96,301.344c0,4.528,0.608,8.912,1.072,13.312H414.944z"/>
<circle style="fill:#C98E3F;" cx="168" cy="168" r="56"/>
<path style="fill:#AB7934;" d="M168,128c28.176,0,51.28,20.896,55.2,48c0.384-2.64,0.8-5.264,0.8-8c0-30.928-25.072-56-56-56
	s-56,25.072-56,56c0,2.736,0.416,5.36,0.8,8C116.72,148.896,139.824,128,168,128z"/>
<circle style="fill:#C98E3F;" cx="344" cy="168" r="56"/>
<g>
	<circle style="fill:#F7B84E;" cx="424" cy="232" r="24"/>
	<circle style="fill:#F7B84E;" cx="88" cy="232" r="24"/>
</g>
<path style="fill:#AB7934;" d="M344,128c28.192,0,51.28,20.896,55.184,48c0.4-2.64,0.816-5.264,0.816-8c0-30.928-25.072-56-56-56
	s-56,25.072-56,56c0,2.736,0.416,5.36,0.816,8C292.72,148.896,315.808,128,344,128z"/>
</svg>