<?xml version="1.0" encoding="iso-8859-1"?>
<!-- Uploaded to: SVG Repo, www.svgrepo.com, Generator: SVG Repo Mixer Tools -->
<svg height="800px" width="800px" version="1.1" id="Layer_1" xmlns="http://www.w3.org/2000/svg" xmlns:xlink="http://www.w3.org/1999/xlink" 
	 viewBox="0 0 512 512" xml:space="preserve">
<circle style="fill:#FCD063;" cx="256" cy="256" r="256"/>
<path style="fill:#F7B84E;" d="M420.256,59.744C457.504,104.208,480,161.456,480,224c0,141.376-114.624,256-256,256
	c-62.544,0-119.776-22.496-164.256-59.744C106.704,476.32,177.152,512,256,512c141.376,0,256-114.624,256-256
	C512,177.152,476.32,106.704,420.256,59.744z"/>
<circle style="fill:#C98E3F;" cx="160" cy="224" r="32"/>
<path style="fill:#AB7934;" d="M160,208c14.896,0,27.296,10.224,30.88,24c0.656-2.576,1.12-5.216,1.12-8c0-17.664-14.336-32-32-32
	s-32,14.336-32,32c0,2.784,0.464,5.424,1.12,8C132.704,218.224,145.104,208,160,208z"/>
<circle style="fill:#C98E3F;" cx="352" cy="224" r="32"/>
<g>
	<circle style="fill:#F7B84E;" cx="408" cy="280" r="24"/>
	<circle style="fill:#F7B84E;" cx="104" cy="280" r="24"/>
</g>
<path style="fill:#AB7934;" d="M352,208c14.896,0,27.296,10.224,30.88,24c0.656-2.576,1.12-5.216,1.12-8c0-17.664-14.336-32-32-32
	s-32,14.336-32,32c0,2.784,0.464,5.424,1.12,8C324.704,218.224,337.104,208,352,208z"/>
<path style="fill:#C98E3F;" d="M278.624,336l20.688-20.688c6.256-6.256,6.256-16.368,0-22.624s-16.368-6.256-22.624,0L256,313.376
	l-20.688-20.688c-6.256-6.256-16.368-6.256-22.624,0s-6.256,16.368,0,22.624L233.376,336l-20.688,20.688
	c-6.256,6.256-6.256,16.368,0,22.624c3.12,3.12,7.216,4.688,11.312,4.688s8.192-1.568,11.312-4.688L256,358.624l20.688,20.688
	c3.12,3.12,7.216,4.688,11.312,4.688s8.192-1.568,11.312-4.688c6.256-6.256,6.256-16.368,0-22.624L278.624,336z"/>
<g>
	<path style="fill:#AB7934;" d="M212.688,308.688c6.256-6.256,16.368-6.256,22.624,0L256,329.376l20.688-20.688
		c6.256-6.256,16.368-6.256,22.624,0c0.976,0.976,1.536,2.176,2.208,3.312c3.616-6.128,3.072-14.032-2.208-19.312
		c-6.256-6.256-16.368-6.256-22.624,0L256,313.376l-20.688-20.688c-6.256-6.256-16.368-6.256-22.624,0
		c-5.28,5.28-5.808,13.184-2.208,19.312C211.152,310.864,211.712,309.664,212.688,308.688z"/>
	<path style="fill:#AB7934;" d="M212.688,372.688L233.376,352v-16l-20.688,20.688c-5.28,5.28-5.808,13.184-2.208,19.312
		C211.152,374.864,211.712,373.664,212.688,372.688z"/>
	<path style="fill:#AB7934;" d="M278.624,336v16l20.688,20.688c0.976,0.976,1.536,2.176,2.208,3.312
		c3.616-6.128,3.072-14.032-2.208-19.312L278.624,336z"/>
</g>
</svg>