<?xml version="1.0" encoding="iso-8859-1"?>
<!-- Uploaded to: SVG Repo, www.svgrepo.com, Generator: SVG Repo Mixer Tools -->
<svg version="1.1" id="Layer_1" xmlns="http://www.w3.org/2000/svg" xmlns:xlink="http://www.w3.org/1999/xlink" 
	 viewBox="0 0 512 512" xml:space="preserve">
<circle style="fill:#FCD063;" cx="256" cy="256" r="256"/>
<g>
	<path style="fill:#F7B84E;" d="M420.256,59.744C457.504,104.208,480,161.456,480,224c0,141.376-114.624,256-256,256
		c-62.544,0-119.792-22.496-164.256-59.744C106.704,476.32,177.152,512,256,512c141.376,0,256-114.624,256-256
		C512,177.152,476.32,106.704,420.256,59.744z"/>
	<circle style="fill:#F7B84E;" cx="408" cy="328" r="24"/>
	<circle style="fill:#F7B84E;" cx="104" cy="328" r="24"/>
</g>
<g>
	<rect x="304" y="192" style="fill:#FFE1A6;" width="128" height="96"/>
	<rect x="80" y="192" style="fill:#FFE1A6;" width="128" height="96"/>
</g>
<path style="fill:#AB7934;" d="M496,192h-34.944c-6.64-18.592-24.24-32-45.056-32h-96c-16.704,0-31.408,8.592-40,21.568
	c-7.472-3.632-15.6-5.568-24-5.568s-16.528,1.936-24,5.568C223.408,168.592,208.704,160,192,160H96
	c-20.832,0-38.416,13.408-45.056,32H16c-8.832,0-16,7.168-16,16s7.168,16,16,16h32v48c0,26.464,21.536,48,48,48h96
	c26.464,0,48-21.536,48-48v-57.424c9.6-8.208,22.4-8.208,32,0V272c0,26.464,21.536,48,48,48h96c26.464,0,48-21.536,48-48v-48h32
	c8.848,0,16-7.168,16-16S504.848,192,496,192z M208,272c0,8.816-7.184,16-16,16H96c-8.816,0-16-7.184-16-16v-64
	c0-8.816,7.184-16,16-16h96c8.816,0,16,7.184,16,16V272z M432,272c0,8.816-7.184,16-16,16h-96c-8.816,0-16-7.184-16-16v-64
	c0-8.816,7.184-16,16-16h96c8.816,0,16,7.184,16,16V272z"/>
<g>
	<circle style="fill:#C98E3F;" cx="352" cy="248" r="16"/>
	<circle style="fill:#C98E3F;" cx="160" cy="248" r="16"/>
	<path style="fill:#C98E3F;" d="M176,376h160c8.848,0,16-7.152,16-16H160C160,368.848,167.168,376,176,376z"/>
</g>
<path style="fill:#AB7934;" d="M336,344H176c-8.832,0-16,7.152-16,16h192C352,351.152,344.848,344,336,344z"/>
<path style="fill:#FFFFFF;" d="M208,392c0,8.8,7.2,16,16,16h64c8.8,0,16-7.2,16-16v-48h-96V392z"/>
<rect x="208" y="344" style="fill:#E2E5E7;" width="96" height="16"/>
<g>
	<path style="fill:#AB7934;" d="M160,248c5.856,0,10.752,3.312,13.552,8c1.424-2.384,2.448-5.024,2.448-8c0-8.832-7.168-16-16-16
		s-16,7.168-16,16c0,2.976,1.024,5.616,2.448,8C149.248,251.312,154.144,248,160,248z"/>
	<path style="fill:#AB7934;" d="M352,248c5.856,0,10.752,3.312,13.552,8c1.424-2.384,2.448-5.024,2.448-8c0-8.832-7.152-16-16-16
		s-16,7.168-16,16c0,2.976,1.024,5.616,2.448,8C341.248,251.312,346.144,248,352,248z"/>
</g>
</svg>