<?xml version="1.0" encoding="iso-8859-1"?>
<!-- Uploaded to: SVG Repo, www.svgrepo.com, Generator: SVG Repo Mixer Tools -->
<svg height="800px" width="800px" version="1.1" id="Layer_1" xmlns="http://www.w3.org/2000/svg" xmlns:xlink="http://www.w3.org/1999/xlink" 
	 viewBox="0 0 512.016 512.016" xml:space="preserve">
<circle style="fill:#35495C;" cx="256.559" cy="256.008" r="255.441"/>
<g>
	<path style="fill:#F15642;" d="M457.703,98.896l43.824-43.824c12.469-12.469,12.469-32.681,0-45.149
		c-12.453-12.469-32.697-12.469-45.149,0l-44,43.984C429.317,66.981,444.532,82.053,457.703,98.896z"/>
	<path style="fill:#F15642;" d="M54.473,100.189c13.059-16.923,28.146-32.138,44.99-45.309L54.505,9.922
		c-12.469-12.469-32.681-12.469-45.149,0C3.113,16.149,0,24.323,0,32.497s3.113,16.348,9.356,22.575L54.473,100.189z"/>
</g>
<path style="fill:#123247;" d="M420.472,60.18c37.167,44.367,59.598,101.49,59.598,163.897
	c0,141.067-114.358,255.441-255.441,255.441c-62.407,0-119.531-22.447-163.897-59.614c46.873,55.942,117.168,91.544,195.844,91.544
	c141.067,0,255.441-114.374,255.441-255.441C512,177.332,476.398,107.038,420.472,60.18z"/>
<path style="fill:#FCD063;" d="M1.134,256.008c0,5.38,0.479,10.649,0.798,15.965h509.27c0.335-5.316,0.798-10.585,0.798-15.965
	c0-40.136-9.515-77.957-26.007-111.756H27.141C10.649,178.051,1.134,215.872,1.134,256.008z"/>
<path style="fill:#F7B84E;" d="M480.07,224.078c0,16.38-1.676,32.361-4.646,47.895h35.778c0.335-5.316,0.798-10.585,0.798-15.965
	c0-40.12-9.356-77.989-25.832-111.756h-19.094C475.36,169.381,480.07,196.155,480.07,224.078z"/>
<g>
	<circle style="fill:#C98E3F;" cx="160.768" cy="208.113" r="31.93"/>
	<circle style="fill:#C98E3F;" cx="352.349" cy="208.113" r="31.93"/>
</g>
<g>
	<path style="fill:#AB7934;" d="M160.784,192.148c14.863,0,27.236,10.202,30.797,23.948c0.671-2.57,1.134-5.205,1.134-7.983
		c0-17.625-14.305-31.93-31.93-31.93s-31.93,14.305-31.93,31.93c0,2.778,0.463,5.412,1.134,7.983
		C133.548,202.349,145.921,192.148,160.784,192.148z"/>
	<path style="fill:#AB7934;" d="M352.349,192.148c14.879,0,27.252,10.202,30.813,23.948c0.655-2.57,1.118-5.205,1.118-7.983
		c0-17.625-14.289-31.93-31.93-31.93c-17.625,0-31.93,14.305-31.93,31.93c0,2.778,0.463,5.412,1.134,7.983
		C325.129,202.349,337.518,192.148,352.349,192.148z"/>
</g>
</svg>