<?xml version="1.0" encoding="iso-8859-1"?>
<!-- Uploaded to: SVG Repo, www.svgrepo.com, Generator: SVG Repo Mixer Tools -->
<svg version="1.1" id="Layer_1" xmlns="http://www.w3.org/2000/svg" xmlns:xlink="http://www.w3.org/1999/xlink" 
	 viewBox="0 0 512 512" xml:space="preserve">
<circle style="fill:#FCD063;" cx="256" cy="256" r="256"/>
<g>
	<path style="fill:#F7B84E;" d="M420.256,59.744C457.504,104.208,480,161.456,480,224c0,141.376-114.624,256-256,256
		c-62.544,0-119.792-22.496-164.256-59.744C106.704,476.32,177.152,512,256,512c141.376,0,256-114.624,256-256
		C512,177.152,476.32,106.704,420.256,59.744z"/>
	<circle style="fill:#F7B84E;" cx="408" cy="280" r="24"/>
	<circle style="fill:#F7B84E;" cx="104" cy="280" r="24"/>
</g>
<path style="fill:#C98E3F;" d="M320,360c0,13.2-10.8,24-24,24h-96c-13.2,0-24-10.8-24-24l0,0c0-13.2,10.8-24,24-24h96
	C309.2,336,320,346.8,320,360L320,360z"/>
<path style="fill:#AB7934;" d="M177.488,352h141.024c-3.328-9.28-12.128-16-22.512-16h-96C189.616,336,180.8,342.72,177.488,352z"/>
<rect x="176" y="360" style="fill:#84BD5A;" width="144" height="152"/>
<g>
	<path style="fill:#C98E3F;" d="M336,192c4.096,0,8.192,1.568,11.312,4.688c6.256,6.256,6.256,16.368,0,22.624L342.624,224H368
		c8.848,0,16,7.168,16,16s-7.152,16-16,16h-64c-6.464,0-12.32-3.904-14.784-9.872c-2.464-5.984-1.104-12.864,3.472-17.44l32-32
		C327.808,193.568,331.904,192,336,192z"/>
	<path style="fill:#C98E3F;" d="M176,192c-4.096,0-8.192,1.568-11.312,4.688c-6.256,6.256-6.256,16.368,0,22.624l4.688,4.688H144
		c-8.832,0-16,7.168-16,16s7.168,16,16,16h64c6.464,0,12.304-3.904,14.784-9.872c2.48-5.984,1.104-12.864-3.472-17.44l-32-32
		C184.192,193.568,180.096,192,176,192z"/>
</g>
<g>
	<path style="fill:#AB7934;" d="M164.688,212.688c3.12-3.12,7.216-4.688,11.312-4.688s8.192,1.568,11.312,4.688l32,32
		c0.976,0.976,1.712,2.08,2.384,3.232c0.352-0.608,0.8-1.136,1.072-1.792c2.48-5.984,1.104-12.864-3.472-17.44l-32-32
		c-3.104-3.12-7.2-4.688-11.296-4.688s-8.192,1.568-11.312,4.688c-5.28,5.28-5.824,13.184-2.208,19.312
		C163.152,214.864,163.712,213.664,164.688,212.688z"/>
	<path style="fill:#AB7934;" d="M144,240h25.376c0,0,0-11.904,0-16H144c-8.832,0-16,7.168-16,16c0,2.976,1.024,5.616,2.448,8
		C133.248,243.312,138.144,240,144,240z"/>
	<path style="fill:#AB7934;" d="M347.312,212.688c-3.12-3.12-7.216-4.688-11.312-4.688s-8.192,1.568-11.312,4.688l-32,32
		c-0.976,0.976-1.712,2.08-2.384,3.232c-0.352-0.608-0.8-1.136-1.072-1.792c-2.464-5.984-1.104-12.864,3.472-17.44l32-32
		c3.104-3.12,7.2-4.688,11.296-4.688s8.192,1.568,11.312,4.688c5.28,5.28,5.808,13.184,2.208,19.312
		C348.848,214.864,348.288,213.664,347.312,212.688z"/>
	<path style="fill:#AB7934;" d="M368,240h-25.376c0,0,0-11.904,0-16H368c8.848,0,16,7.168,16,16c0,2.976-1.024,5.616-2.448,8
		C378.752,243.312,373.856,240,368,240z"/>
</g>
<g>
	<circle style="fill:#6FA14E;" cx="208" cy="480" r="16"/>
	<circle style="fill:#6FA14E;" cx="288" cy="384" r="16"/>
	<circle style="fill:#6FA14E;" cx="264" cy="456" r="8"/>
	<circle style="fill:#6FA14E;" cx="296" cy="424" r="8"/>
	<circle style="fill:#6FA14E;" cx="232" cy="440" r="8"/>
	<circle style="fill:#6FA14E;" cx="280" cy="488" r="8"/>
	<circle style="fill:#6FA14E;" cx="224" cy="400" r="16"/>
</g>
</svg>