<?xml version="1.0" encoding="iso-8859-1"?>
<!-- Uploaded to: SVG Repo, www.svgrepo.com, Generator: SVG Repo Mixer Tools -->
<svg height="800px" width="800px" version="1.1" id="Layer_1" xmlns="http://www.w3.org/2000/svg" xmlns:xlink="http://www.w3.org/1999/xlink" 
	 viewBox="0 0 512 512" xml:space="preserve">
<circle style="fill:#FCD063;" cx="256" cy="256" r="256"/>
<path style="fill:#F7B84E;" d="M420.256,59.744C457.504,104.208,480,161.456,480,224c0,141.376-114.624,256-256,256
	c-62.544,0-119.792-22.496-164.256-59.744C106.704,476.32,177.152,512,256,512c141.376,0,256-114.624,256-256
	C512,177.152,476.32,106.704,420.256,59.744z"/>
<circle style="fill:#C98E3F;" cx="160" cy="224" r="32"/>
<path style="fill:#AB7934;" d="M160,208c14.896,0,27.296,10.224,30.864,24c0.672-2.576,1.136-5.216,1.136-8
	c0-17.664-14.336-32-32-32s-32,14.336-32,32c0,2.784,0.464,5.424,1.136,8C132.704,218.224,145.104,208,160,208z"/>
<circle style="fill:#C98E3F;" cx="352" cy="224" r="32"/>
<g>
	<circle style="fill:#F7B84E;" cx="408" cy="280" r="24"/>
	<circle style="fill:#F7B84E;" cx="104" cy="280" r="24"/>
</g>
<path style="fill:#AB7934;" d="M352,208c14.896,0,27.296,10.224,30.88,24c0.656-2.576,1.12-5.216,1.12-8c0-17.664-14.336-32-32-32
	s-32,14.336-32,32c0,2.784,0.464,5.424,1.12,8C324.704,218.224,337.104,208,352,208z"/>
<path style="fill:#C98E3F;" d="M160,376c0,13.248,10.736,24,24,24s24-10.752,24-24c0-13.232,10.768-24,24-24h48
	c13.248,0,24-10.752,24-24s-10.752-24-24-24h-48c-1.664,0-3.28,0.176-4.848,0.496C189.744,307.024,160,337.952,160,376z"/>
<path style="fill:#AB7934;" d="M227.152,320.496c1.568-0.32,3.184-0.496,4.848-0.496h48c10.432,0,19.216,6.704,22.528,16
	c0.896-2.512,1.472-5.184,1.472-8c0-13.248-10.752-24-24-24h-48c-1.664,0-3.28,0.176-4.848,0.496
	C189.744,307.024,160,337.952,160,376c0,2.192,0.384,4.288,0.944,6.32C165.52,348.864,193.008,322.816,227.152,320.496z"/>
</svg>