<?xml version="1.0" encoding="iso-8859-1"?>
<!-- Uploaded to: SVG Repo, www.svgrepo.com, Generator: SVG Repo Mixer Tools -->
<svg height="800px" width="800px" version="1.1" id="Layer_1" xmlns="http://www.w3.org/2000/svg" xmlns:xlink="http://www.w3.org/1999/xlink" 
	 viewBox="0 0 512 512" xml:space="preserve">
<circle style="fill:#FCD063;" cx="256" cy="256" r="256"/>
<path style="fill:#F7B84E;" d="M420.256,59.744C457.504,104.208,480,161.456,480,224c0,141.376-114.624,256-256,256
	c-62.544,0-119.792-22.496-164.256-59.744C106.704,476.32,177.152,512,256,512c141.376,0,256-114.624,256-256
	C512,177.152,476.32,106.704,420.256,59.744z"/>
<g>
	<path style="fill:#C98E3F;" d="M325.776,368c-4.608,0-9.264-1.12-13.504-3.472c-29.984-16.592-82.592-16.592-112.576,0
		c-12.368,6.864-28.48,3.216-35.952-8.144s-3.488-26.128,8.88-32.992c46.736-25.872,119.968-25.872,166.704,0
		c12.368,6.864,16.352,21.632,8.88,32.992C343.312,363.856,334.656,368,325.776,368z"/>
	<path style="fill:#C98E3F;" d="M312.032,192c4.56,0,9.184,1.312,13.28,4.032l48,32c11.024,7.344,14,22.256,6.656,33.28
		c-7.344,11.024-22.24,14.016-33.28,6.656l-48-32c-11.024-7.344-14-22.256-6.656-33.28C296.656,195.744,304.272,192,312.032,192z"/>
	<path style="fill:#C98E3F;" d="M199.984,192c7.76,0,15.36,3.744,20,10.688c7.344,11.024,4.368,25.936-6.656,33.28l-48,32
		c-11.024,7.36-25.936,4.368-33.28-6.656c-7.344-11.024-4.368-25.936,6.656-33.28l48-32C190.784,193.296,195.408,192,199.984,192z"
		/>
</g>
<g>
	<path style="fill:#AB7934;" d="M172.64,339.408c46.736-25.872,119.968-25.872,166.704,0c5.44,3.024,9.152,7.6,11.088,12.72
		c4.16-10.56-0.224-22.688-11.088-28.72c-46.736-25.872-119.968-25.872-166.704,0c-10.88,6.032-15.248,18.16-11.088,28.72
		C163.488,347.008,167.2,342.432,172.64,339.408z"/>
	<path style="fill:#AB7934;" d="M219.968,226.672c-7.344-11.024-22.24-14.016-33.28-6.656l-48,32
		c-3.168,2.112-5.584,4.88-7.36,7.952c-6.304-10.88-3.248-24.88,7.36-31.952l48-32c11.04-7.36,25.936-4.368,33.28,6.656
		c5.248,7.872,5.152,17.664,0.704,25.328C220.416,227.568,220.256,227.104,219.968,226.672z"/>
	<path style="fill:#AB7934;" d="M292.032,226.672c7.344-11.024,22.24-14.016,33.28-6.656l48,32c3.152,2.112,5.584,4.88,7.36,7.952
		c6.304-10.88,3.232-24.88-7.36-31.952l-48-32c-11.04-7.36-25.936-4.368-33.28,6.656c-5.248,7.872-5.152,17.664-0.704,25.328
		C291.584,227.568,291.744,227.104,292.032,226.672z"/>
</g>
<g>
	<circle style="fill:#F7B84E;" cx="408" cy="296" r="24"/>
	<circle style="fill:#F7B84E;" cx="104" cy="296" r="24"/>
</g>
</svg>