<?xml version="1.0" encoding="iso-8859-1"?>
<!-- Uploaded to: SVG Repo, www.svgrepo.com, Generator: SVG Repo Mixer Tools -->
<svg height="800px" width="800px" version="1.1" id="Layer_1" xmlns="http://www.w3.org/2000/svg" xmlns:xlink="http://www.w3.org/1999/xlink" 
	 viewBox="0 0 512 512" xml:space="preserve">
<circle style="fill:#FCD063;" cx="256" cy="256" r="256"/>
<path style="fill:#F7B84E;" d="M420.256,59.744C457.504,104.208,480,161.456,480,224c0,141.376-114.624,256-256,256
	c-62.544,0-119.776-22.496-164.256-59.744C106.704,476.32,177.152,512,256,512c141.376,0,256-114.624,256-256
	C512,177.152,476.32,106.704,420.256,59.744z"/>
<path style="fill:#C98E3F;" d="M192,240c-8.848,0-16-7.168-16-16c0-8.816-7.168-16-16-16s-16,7.184-16,16c0,8.832-7.152,16-16,16
	s-16-7.168-16-16c0-26.464,21.536-48,48-48s48,21.536,48,48C208,232.832,200.848,240,192,240z"/>
<path style="fill:#AB7934;" d="M160,192c22.944,0,42.128,16.208,46.848,37.744c0.688-1.792,1.152-3.712,1.152-5.744
	c0-26.464-21.536-48-48-48s-48,21.536-48,48c0,2.032,0.464,3.952,1.152,5.744C117.872,208.208,137.056,192,160,192z"/>
<path style="fill:#C98E3F;" d="M384,240c-8.848,0-16-7.168-16-16c0-8.816-7.168-16-16-16s-16,7.184-16,16c0,8.832-7.152,16-16,16
	s-16-7.168-16-16c0-26.464,21.536-48,48-48s48,21.536,48,48C400,232.832,392.848,240,384,240z"/>
<g>
	<circle style="fill:#F7B84E;" cx="408" cy="280" r="24"/>
	<circle style="fill:#F7B84E;" cx="104" cy="280" r="24"/>
</g>
<circle style="fill:#C98E3F;" cx="208" cy="368" r="32"/>
<g>
	<path style="fill:#AB7934;" d="M208,352c14.896,0,27.296,10.224,30.88,24c0.656-2.56,1.12-5.216,1.12-8c0-17.664-14.336-32-32-32
		s-32,14.336-32,32c0,2.784,0.464,5.44,1.12,8C180.704,362.224,193.104,352,208,352z"/>
	<path style="fill:#AB7934;" d="M352,192c22.944,0,42.128,16.208,46.848,37.744c0.688-1.792,1.152-3.712,1.152-5.744
		c0-26.464-21.536-48-48-48s-48,21.536-48,48c0,2.032,0.464,3.952,1.152,5.744C309.872,208.208,329.056,192,352,192z"/>
</g>
</svg>