<?xml version="1.0" encoding="iso-8859-1"?>
<!-- Uploaded to: SVG Repo, www.svgrepo.com, Generator: SVG Repo Mixer Tools -->
<svg height="800px" width="800px" version="1.1" id="Layer_1" xmlns="http://www.w3.org/2000/svg" xmlns:xlink="http://www.w3.org/1999/xlink" 
	 viewBox="0 0 512 512" xml:space="preserve">
<circle style="fill:#FCD063;" cx="256" cy="256" r="256"/>
<path style="fill:#F7B84E;" d="M420.256,59.744C457.504,104.208,480,161.456,480,224c0,141.376-114.624,256-256,256
	c-62.544,0-119.776-22.496-164.256-59.744C106.704,476.32,177.152,512,256,512c141.376,0,256-114.624,256-256
	C512,177.152,476.32,106.704,420.256,59.744z"/>
<g>
	<path style="fill:#C98E3F;" d="M128,176c8.848,0,16,7.152,16,16c0,8.816,7.168,16,16,16s16-7.184,16-16c0-8.848,7.152-16,16-16
		s16,7.152,16,16c0,26.464-21.536,48-48,48s-48-21.536-48-48C112,183.152,119.152,176,128,176z"/>
	<path style="fill:#C98E3F;" d="M320,176c8.848,0,16,7.152,16,16c0,8.816,7.168,16,16,16s16-7.184,16-16c0-8.848,7.152-16,16-16
		s16,7.152,16,16c0,26.464-21.536,48-48,48s-48-21.536-48-48C304,183.152,311.152,176,320,176z"/>
</g>
<g>
	<circle style="fill:#F7B84E;" cx="408" cy="280" r="24"/>
	<circle style="fill:#F7B84E;" cx="104" cy="280" r="24"/>
</g>
<circle style="fill:#C98E3F;" cx="256" cy="368" r="32"/>
<g>
	<path style="fill:#AB7934;" d="M256,352c14.896,0,27.296,10.224,30.88,24c0.656-2.56,1.12-5.216,1.12-8c0-17.664-14.336-32-32-32
		s-32,14.336-32,32c0,2.784,0.464,5.44,1.12,8C228.704,362.224,241.104,352,256,352z"/>
	<path style="fill:#AB7934;" d="M128,192c8.848,0,16,7.152,16,16c0,8.816,7.168,16,16,16s16-7.184,16-16c0-8.848,7.152-16,16-16
		c6.8,0,12.528,4.272,14.848,10.256C207.568,198.944,208,195.52,208,192c0-8.848-7.152-16-16-16s-16,7.152-16,16
		c0,8.816-7.168,16-16,16s-16-7.184-16-16c0-8.848-7.152-16-16-16s-16,7.152-16,16c0,3.52,0.432,6.944,1.152,10.256
		C115.472,196.272,121.2,192,128,192z"/>
	<path style="fill:#AB7934;" d="M320,192c8.848,0,16,7.152,16,16c0,8.816,7.168,16,16,16s16-7.184,16-16c0-8.848,7.152-16,16-16
		c6.816,0,12.528,4.272,14.848,10.256C399.568,198.944,400,195.52,400,192c0-8.848-7.152-16-16-16s-16,7.152-16,16
		c0,8.816-7.168,16-16,16s-16-7.184-16-16c0-8.848-7.152-16-16-16s-16,7.152-16,16c0,3.52,0.432,6.944,1.152,10.256
		C307.472,196.272,313.184,192,320,192z"/>
</g>
</svg>