<?xml version="1.0" encoding="iso-8859-1"?>
<!-- Uploaded to: SVG Repo, www.svgrepo.com, Generator: SVG Repo Mixer Tools -->
<svg height="800px" width="800px" version="1.1" id="Layer_1" xmlns="http://www.w3.org/2000/svg" xmlns:xlink="http://www.w3.org/1999/xlink" 
	 viewBox="0 0 512 512" xml:space="preserve">
<circle style="fill:#FCD063;" cx="256" cy="256" r="256"/>
<path style="fill:#F7B84E;" d="M420.256,59.744C457.504,104.224,480,161.456,480,224c0,141.392-114.624,256-256,256
	c-62.544,0-119.776-22.48-164.256-59.728C106.704,476.32,177.152,512,256,512c141.376,0,256-114.608,256-256
	C512,177.152,476.32,106.704,420.256,59.744z"/>
<circle style="fill:#C98E3F;" cx="160" cy="224" r="32"/>
<path style="fill:#AB7934;" d="M160,208c14.896,0,27.296,10.224,30.88,24c0.656-2.56,1.12-5.216,1.12-8c0-17.664-14.336-32-32-32
	s-32,14.336-32,32c0,2.784,0.464,5.44,1.12,8C132.704,218.224,145.104,208,160,208z"/>
<circle style="fill:#C98E3F;" cx="352" cy="224" r="32"/>
<g>
	<circle style="fill:#F7B84E;" cx="408" cy="280" r="24"/>
	<circle style="fill:#F7B84E;" cx="104" cy="280" r="24"/>
</g>
<path style="fill:#AB7934;" d="M352,208c14.896,0,27.296,10.224,30.88,24c0.656-2.56,1.12-5.216,1.12-8c0-17.664-14.336-32-32-32
	s-32,14.336-32,32c0,2.784,0.464,5.44,1.12,8C324.704,218.224,337.104,208,352,208z"/>
<circle style="fill:#C98E3F;" cx="256" cy="320" r="32"/>
<path style="fill:#AB7934;" d="M256,304c14.896,0,27.296,10.224,30.88,24c0.656-2.56,1.12-5.216,1.12-8c0-17.664-14.336-32-32-32
	s-32,14.336-32,32c0,2.784,0.464,5.44,1.12,8C228.704,314.224,241.104,304,256,304z"/>
</svg>