<?xml version="1.0" encoding="iso-8859-1"?>
<!-- Uploaded to: SVG Repo, www.svgrepo.com, Generator: SVG Repo Mixer Tools -->
<svg height="800px" width="800px" version="1.1" id="Layer_1" xmlns="http://www.w3.org/2000/svg" xmlns:xlink="http://www.w3.org/1999/xlink" 
	 viewBox="0 0 512 512" xml:space="preserve">
<circle style="fill:#FCD063;" cx="256" cy="256" r="256"/>
<path style="fill:#F7B84E;" d="M420.256,59.744C457.504,104.208,480,161.456,480,224c0,141.376-114.624,256-256,256
	c-62.544,0-119.792-22.496-164.256-59.744C106.704,476.32,177.152,512,256,512c141.376,0,256-114.624,256-256
	C512,177.152,476.32,106.704,420.256,59.744z"/>
<circle style="fill:#C98E3F;" cx="160" cy="256" r="32"/>
<path style="fill:#AB7934;" d="M160,240c14.896,0,27.296,10.224,30.864,24c0.672-2.576,1.136-5.216,1.136-8
	c0-17.664-14.336-32-32-32s-32,14.336-32,32c0,2.784,0.464,5.424,1.136,8C132.704,250.224,145.104,240,160,240z"/>
<circle style="fill:#C98E3F;" cx="352" cy="256" r="32"/>
<g>
	<circle style="fill:#F7B84E;" cx="408" cy="312" r="24"/>
	<circle style="fill:#F7B84E;" cx="104" cy="312" r="24"/>
</g>
<path style="fill:#AB7934;" d="M352,240c14.896,0,27.296,10.224,30.88,24c0.656-2.576,1.12-5.216,1.12-8c0-17.664-14.336-32-32-32
	s-32,14.336-32,32c0,2.784,0.464,5.424,1.12,8C324.704,250.224,337.104,240,352,240z"/>
<path style="fill:#C98E3F;" d="M336,360c0,13.2-10.8,24-24,24H200c-13.2,0-24-10.8-24-24l0,0c0-13.2,10.8-24,24-24h112
	C325.2,336,336,346.8,336,360L336,360z"/>
<path style="fill:#AB7934;" d="M177.488,352h157.024c-3.328-9.28-12.128-16-22.512-16H200C189.616,336,180.8,342.72,177.488,352z"/>
<g>
	<path style="fill:#FFFFFF;" d="M78.448,179.264c-3.008-4.112-9.888-4.112-12.912,0C62.624,183.264,48,203.856,48,216.72
		C48,229.568,58.768,240,72,240s24-10.432,24-23.28C96,203.856,81.376,183.264,78.448,179.264z"/>
	<path style="fill:#FFFFFF;" d="M462.448,211.072c-3.008-4.112-9.888-4.112-12.912,0c-2.912,4-17.536,24.592-17.536,37.472
		c0,12.832,10.768,23.28,24,23.28s24-10.432,24-23.28C480,235.664,465.376,215.072,462.448,211.072z"/>
</g>
<path style="fill:#AB7934;" d="M18.784,160h474.432c-9.408-23.232-22.112-44.752-37.568-64H56.336
	C40.896,115.248,28.192,136.768,18.784,160z"/>
</svg>