<?xml version="1.0" encoding="iso-8859-1"?>
<!-- Uploaded to: SVG Repo, www.svgrepo.com, Generator: SVG Repo Mixer Tools -->
<svg height="800px" width="800px" version="1.1" id="Layer_1" xmlns="http://www.w3.org/2000/svg" xmlns:xlink="http://www.w3.org/1999/xlink" 
	 viewBox="0 0 512 512" xml:space="preserve">
<circle style="fill:#FCD063;" cx="256" cy="256" r="256"/>
<path style="fill:#F7B84E;" d="M420.256,59.744C457.504,104.208,480,161.456,480,224c0,141.376-114.624,256-256,256
	c-62.544,0-119.792-22.496-164.256-59.744C106.704,476.32,177.152,512,256,512c141.376,0,256-114.624,256-256
	C512,177.152,476.32,106.704,420.256,59.744z"/>
<circle style="fill:#C98E3F;" cx="160" cy="224" r="32"/>
<path style="fill:#AB7934;" d="M160,208c14.896,0,27.296,10.224,30.864,24c0.672-2.576,1.136-5.216,1.136-8
	c0-17.664-14.336-32-32-32s-32,14.336-32,32c0,2.784,0.464,5.424,1.136,8C132.704,218.224,145.104,208,160,208z"/>
<g>
	<circle style="fill:#F7B84E;" cx="408" cy="280" r="24"/>
	<circle style="fill:#F7B84E;" cx="104" cy="280" r="24"/>
</g>
<path style="fill:#C98E3F;" d="M340.688,187.312c4.096,0,8.192,1.568,11.312,4.688c6.256,6.256,6.256,16.368,0,22.624l-4.688,4.688
	h25.376c8.848,0,16,7.168,16,16s-7.152,16-16,16h-64c-6.464,0-12.32-3.904-14.784-9.872c-2.464-5.984-1.104-12.864,3.472-17.44
	l32-32C332.496,188.88,336.592,187.312,340.688,187.312z"/>
<g>
	<path style="fill:#AB7934;" d="M352,208c-3.12-3.12-7.216-4.688-11.312-4.688s-8.192,1.568-11.312,4.688l-32,32
		c-0.976,0.976-1.712,2.08-2.384,3.232c-0.352-0.608-0.8-1.136-1.072-1.792c-2.464-5.984-1.104-12.864,3.472-17.44l32-32
		c3.12-3.12,7.216-4.688,11.312-4.688S348.88,188.88,352,192c5.28,5.28,5.808,13.184,2.208,19.312
		C353.536,210.176,352.976,208.976,352,208z"/>
	<path style="fill:#AB7934;" d="M372.688,235.312h-25.376c0,0,0-11.904,0-16h25.376c8.848,0,16,7.168,16,16
		c0,2.976-1.024,5.616-2.448,8C383.44,238.624,378.544,235.312,372.688,235.312z"/>
</g>
<path style="fill:#C98E3F;" d="M352,296c0-13.248-10.752-24-24-24s-24,10.752-24,24c0,13.232-10.768,24-24,24h-48
	c-13.264,0-24,10.752-24,24s10.736,24,24,24h48c1.664,0,3.28-0.176,4.848-0.496C322.256,364.976,352,334.048,352,296z"/>
<path style="fill:#AB7934;" d="M224,360c0-13.248,10.736-24,24-24h48c13.232,0,24-10.768,24-24c0-13.248,10.752-24,24-24
	c2.4,0,4.688,0.464,6.88,1.12C347.904,279.248,338.848,272,328,272c-13.248,0-24,10.752-24,24c0,13.232-10.768,24-24,24h-48
	c-13.264,0-24,10.752-24,24c0,10.848,7.248,19.904,17.12,22.88C224.464,364.688,224,362.4,224,360z"/>
</svg>